<svg xmlns="http://www.w3.org/2000/svg" xmlns:xlink="http://www.w3.org/1999/xlink" viewBox="0 0 1200 550"><defs><style>.cls-1{fill:url(#linear-gradient-7);}.cls-1,.cls-2,.cls-3,.cls-4,.cls-5,.cls-6,.cls-7,.cls-8,.cls-9,.cls-10,.cls-11,.cls-12,.cls-13,.cls-14,.cls-15,.cls-16,.cls-17,.cls-18,.cls-19,.cls-20,.cls-21,.cls-22,.cls-23,.cls-24,.cls-25,.cls-26,.cls-27,.cls-28,.cls-29,.cls-30,.cls-31{mix-blend-mode:multiply;}.cls-2{fill:url(#linear-gradient-4);}.cls-3{fill:url(#linear-gradient-2);}.cls-32{fill:url(#linear-gradient-8);}.cls-33{fill:url(#linear-gradient-9);}.cls-34{fill:url(#linear-gradient-3);}.cls-35{fill:url(#linear-gradient-6);}.cls-36{fill:url(#linear-gradient-5);}.cls-37{opacity:.61;}.cls-38{opacity:.55;}.cls-39{opacity:.8;}.cls-4{fill:url(#linear-gradient);}.cls-40{stroke:url(#linear-gradient-79);}.cls-40,.cls-41,.cls-42,.cls-43,.cls-44,.cls-45,.cls-46,.cls-47,.cls-48,.cls-49,.cls-50,.cls-51{fill:none;stroke-miterlimit:10;}.cls-41{stroke:url(#linear-gradient-84);}.cls-42{stroke:url(#linear-gradient-85);}.cls-43{stroke:url(#linear-gradient-80);}.cls-44{stroke:url(#linear-gradient-81);}.cls-45{stroke:url(#linear-gradient-82);}.cls-46{stroke:url(#linear-gradient-83);}.cls-47{stroke:url(#linear-gradient-90);}.cls-48{stroke:url(#linear-gradient-89);}.cls-49{stroke:url(#linear-gradient-88);}.cls-50{stroke:url(#linear-gradient-86);}.cls-51{stroke:url(#linear-gradient-87);}.cls-52{fill:url(#linear-gradient-71);}.cls-52,.cls-53,.cls-54,.cls-55,.cls-56,.cls-57,.cls-58,.cls-59{opacity:.84;}.cls-53{fill:url(#linear-gradient-72);}.cls-54{fill:url(#linear-gradient-73);}.cls-55{fill:url(#linear-gradient-75);}.cls-56{fill:url(#linear-gradient-76);}.cls-57{fill:url(#linear-gradient-74);}.cls-58{fill:url(#linear-gradient-77);}.cls-59{fill:url(#linear-gradient-78);}.cls-60{fill:url(#linear-gradient-58);}.cls-61{fill:url(#linear-gradient-55);}.cls-62{fill:url(#linear-gradient-53);}.cls-63{fill:url(#linear-gradient-51);}.cls-64{fill:url(#linear-gradient-70);}.cls-65{fill:url(#linear-gradient-69);}.cls-66{fill:url(#linear-gradient-63);}.cls-67{fill:url(#linear-gradient-66);}.cls-68{fill:url(#linear-gradient-65);}.cls-69{fill:url(#linear-gradient-60);}.cls-70{fill:url(#linear-gradient-61);}.cls-71{fill:url(#linear-gradient-41);}.cls-72{fill:url(#linear-gradient-40);}.cls-73{fill:url(#linear-gradient-45);}.cls-74{fill:url(#linear-gradient-44);}.cls-75{fill:url(#linear-gradient-49);}.cls-76{fill:url(#linear-gradient-48);}.cls-77{fill:url(#linear-gradient-14);}.cls-78{fill:url(#linear-gradient-20);}.cls-79{fill:url(#linear-gradient-15);}.cls-80{fill:url(#linear-gradient-16);}.cls-81{fill:url(#linear-gradient-17);}.cls-82{fill:url(#linear-gradient-12);}.cls-83{fill:url(#linear-gradient-10);}.cls-84{fill:url(#linear-gradient-27);}.cls-85{fill:url(#linear-gradient-24);}.cls-86{fill:url(#linear-gradient-38);}.cls-87{fill:url(#linear-gradient-34);}.cls-88{fill:url(#linear-gradient-39);}.cls-89{fill:url(#linear-gradient-25);}.cls-90{fill:url(#linear-gradient-28);}.cls-91{fill:url(#linear-gradient-33);}.cls-92{fill:url(#linear-gradient-32);}.cls-93{fill:url(#linear-gradient-31);}.cls-94{isolation:isolate;}.cls-5{fill:url(#linear-gradient-42);}.cls-6{fill:url(#linear-gradient-43);}.cls-7{fill:url(#linear-gradient-46);}.cls-8{fill:url(#linear-gradient-47);}.cls-9{fill:url(#linear-gradient-64);}.cls-10{fill:url(#linear-gradient-67);}.cls-11{fill:url(#linear-gradient-68);}.cls-12{fill:url(#linear-gradient-62);}.cls-13{fill:url(#linear-gradient-52);}.cls-14{fill:url(#linear-gradient-50);}.cls-15{fill:url(#linear-gradient-56);}.cls-16{fill:url(#linear-gradient-54);}.cls-17{fill:url(#linear-gradient-59);}.cls-18{fill:url(#linear-gradient-57);}.cls-19{fill:url(#linear-gradient-19);}.cls-20{fill:url(#linear-gradient-21);}.cls-21{fill:url(#linear-gradient-23);}.cls-22{fill:url(#linear-gradient-22);}.cls-23{fill:url(#linear-gradient-18);}.cls-24{fill:url(#linear-gradient-13);}.cls-25{fill:url(#linear-gradient-11);}.cls-26{fill:url(#linear-gradient-37);}.cls-27{fill:url(#linear-gradient-35);}.cls-28{fill:url(#linear-gradient-36);}.cls-29{fill:url(#linear-gradient-29);}.cls-30{fill:url(#linear-gradient-30);}.cls-31{fill:url(#linear-gradient-26);}</style><linearGradient id="linear-gradient" x1="14066.92" y1="8699.66" x2="14058.11" y2="8892.09" gradientTransform="translate(-8010.92 14406.25) rotate(-90)" gradientUnits="userSpaceOnUse"><stop offset="0" stop-color="#404041"/><stop offset="0" stop-color="#444445"/><stop offset=".05" stop-color="#696969"/><stop offset=".11" stop-color="#89898a"/><stop offset=".16" stop-color="#a4a4a4"/><stop offset=".23" stop-color="#bababa"/><stop offset=".31" stop-color="#cbcbcb"/><stop offset=".4" stop-color="#d7d7d7"/><stop offset=".54" stop-color="#dedede"/><stop offset=".91" stop-color="#e0e0e0"/></linearGradient><linearGradient id="linear-gradient-2" x1="13929.26" y1="8937.7" x2="13920.45" y2="9130.12" gradientTransform="translate(-8010.92 14406.25) rotate(-90)" gradientUnits="userSpaceOnUse"><stop offset="0" stop-color="#404041"/><stop offset=".02" stop-color="#565657"/><stop offset=".07" stop-color="#7b7b7b"/><stop offset=".12" stop-color="#9b9b9b"/><stop offset=".18" stop-color="#b6b6b6"/><stop offset=".24" stop-color="#ccc"/><stop offset=".32" stop-color="#ddd"/><stop offset=".41" stop-color="#e9e9e9"/><stop offset=".54" stop-color="#f0f0f0"/><stop offset=".91" stop-color="#f2f2f2"/></linearGradient><linearGradient id="linear-gradient-3" y1="8858.36" y2="9050.78" xlink:href="#linear-gradient-2"/><linearGradient id="linear-gradient-4" y1="9096.39" y2="9288.81" xlink:href="#linear-gradient-2"/><linearGradient id="linear-gradient-5" x1="14066.92" y1="9017.05" x2="14058.11" y2="9209.47" xlink:href="#linear-gradient-2"/><linearGradient id="linear-gradient-6" x1="14066.92" x2="14058.11" xlink:href="#linear-gradient-2"/><linearGradient id="linear-gradient-7" x1="14066.92" y1="8858.36" x2="14058.11" y2="9050.78" xlink:href="#linear-gradient-2"/><linearGradient id="linear-gradient-8" x1="14066.92" y1="9096.39" x2="14058.11" y2="9288.81" xlink:href="#linear-gradient-2"/><linearGradient id="linear-gradient-9" x1="14066.92" y1="8779.01" x2="14058.11" y2="8971.43" xlink:href="#linear-gradient-2"/><linearGradient id="linear-gradient-10" x1="13929.26" y1="9017.05" x2="13920.45" y2="9209.47" xlink:href="#linear-gradient"/><linearGradient id="linear-gradient-11" x1="14013.45" y1="8794.66" x2="13868.89" y2="8943.01" gradientTransform="translate(-8010.92 14406.25) rotate(-90)" gradientUnits="userSpaceOnUse"><stop offset="0" stop-color="#404041"/><stop offset=".05" stop-color="#5e5e5f"/><stop offset=".11" stop-color="#808081"/><stop offset=".19" stop-color="#9d9d9e"/><stop offset=".27" stop-color="#b5b5b6"/><stop offset=".36" stop-color="#c7c7c8"/><stop offset=".47" stop-color="#d4d4d5"/><stop offset=".61" stop-color="#dbdbdc"/><stop offset=".92" stop-color="#dededf"/></linearGradient><linearGradient id="linear-gradient-12" x1="14013.45" y1="8715.32" x2="13868.89" y2="8863.66" xlink:href="#linear-gradient-11"/><linearGradient id="linear-gradient-13" x1="13996.59" y1="8644.21" x2="14062.73" y2="8728.3" gradientTransform="translate(-8010.92 14406.25) rotate(-90)" gradientUnits="userSpaceOnUse"><stop offset="0" stop-color="#404041"/><stop offset="0" stop-color="#444445"/><stop offset=".06" stop-color="#6b6a6b"/><stop offset=".12" stop-color="#8d8c8d"/><stop offset=".19" stop-color="#a9a9a9"/><stop offset=".26" stop-color="#c1c0c0"/><stop offset=".35" stop-color="#d3d2d2"/><stop offset=".45" stop-color="#dfdede"/><stop offset=".59" stop-color="#e6e5e5"/><stop offset=".9" stop-color="#e9e8e8"/></linearGradient><linearGradient id="linear-gradient-14" x1="13929.26" y1="8620.34" x2="13920.45" y2="8812.76" xlink:href="#linear-gradient-2"/><linearGradient id="linear-gradient-15" x1="14342.24" y1="9096.39" x2="14333.44" y2="9288.81" xlink:href="#linear-gradient"/><linearGradient id="linear-gradient-16" x1="14204.58" y1="9096.39" x2="14195.78" y2="9288.81" xlink:href="#linear-gradient-2"/><linearGradient id="linear-gradient-17" x1="14204.58" y1="9017.05" x2="14195.78" y2="9209.47" xlink:href="#linear-gradient-2"/><linearGradient id="linear-gradient-18" x1="14204.58" x2="14195.78" xlink:href="#linear-gradient-2"/><linearGradient id="linear-gradient-19" x1="14479.9" x2="14471.1" xlink:href="#linear-gradient-2"/><linearGradient id="linear-gradient-20" x1="14479.9" y1="8858.36" x2="14471.1" y2="9050.78" xlink:href="#linear-gradient-2"/><linearGradient id="linear-gradient-21" x1="14271.92" y1="9040.94" x2="14338.05" y2="9125.03" xlink:href="#linear-gradient-13"/><linearGradient id="linear-gradient-22" x1="14204.58" y1="8779.01" x2="14195.78" y2="8971.43" xlink:href="#linear-gradient-2"/><linearGradient id="linear-gradient-23" x1="14479.9" y1="9096.39" x2="14471.1" y2="9288.81" xlink:href="#linear-gradient-2"/><linearGradient id="linear-gradient-24" x1="14204.58" y1="8858.36" x2="14195.78" y2="9050.78" xlink:href="#linear-gradient-2"/><linearGradient id="linear-gradient-25" x1="14271.92" y1="8961.6" x2="14338.05" y2="9045.68" xlink:href="#linear-gradient-13"/><linearGradient id="linear-gradient-26" x1="14342.24" y1="8858.36" x2="14333.44" y2="9050.78" xlink:href="#linear-gradient"/><linearGradient id="linear-gradient-27" x1="14342.24" y1="8779.01" x2="14333.44" y2="8971.43" xlink:href="#linear-gradient-2"/><linearGradient id="linear-gradient-28" x1="14479.9" y1="9017.05" x2="14471.1" y2="9209.47" xlink:href="#linear-gradient"/><linearGradient id="linear-gradient-29" x1="14564.1" x2="14419.53" y2="8943.01" xlink:href="#linear-gradient-11"/><linearGradient id="linear-gradient-30" x1="13929.26" y1="8065.32" x2="13920.45" y2="8257.74" xlink:href="#linear-gradient-2"/><linearGradient id="linear-gradient-31" x1="14066.92" y1="8144.66" x2="14058.11" y2="8337.08" xlink:href="#linear-gradient-2"/><linearGradient id="linear-gradient-32" x1="14066.92" y1="8065.32" x2="14058.11" y2="8257.74" xlink:href="#linear-gradient-2"/><linearGradient id="linear-gradient-33" x1="13929.26" y1="8144.66" x2="13920.45" y2="8337.08" xlink:href="#linear-gradient"/><linearGradient id="linear-gradient-34" x1="14204.58" y1="8144.66" x2="14195.78" y2="8337.08" xlink:href="#linear-gradient-2"/><linearGradient id="linear-gradient-35" x1="14204.58" y1="8065.32" x2="14195.78" y2="8257.74" xlink:href="#linear-gradient-2"/><linearGradient id="linear-gradient-36" x1="14479.9" y1="8065.32" x2="14471.1" y2="8257.74" xlink:href="#linear-gradient-2"/><linearGradient id="linear-gradient-37" x1="14271.92" y1="8168.56" x2="14338.05" y2="8252.64" xlink:href="#linear-gradient-13"/><linearGradient id="linear-gradient-38" x1="14271.92" y1="8089.21" x2="14338.05" y2="8173.3" xlink:href="#linear-gradient-13"/><linearGradient id="linear-gradient-39" x1="14479.9" y1="8144.66" x2="14471.1" y2="8337.08" xlink:href="#linear-gradient"/><linearGradient id="linear-gradient-40" x1="14564.1" y1="8715.32" x2="14419.53" y2="8863.66" xlink:href="#linear-gradient-11"/><linearGradient id="linear-gradient-41" x1="14426.44" y1="8715.32" x2="14281.87" y2="8863.66" xlink:href="#linear-gradient-11"/><linearGradient id="linear-gradient-42" x1="14204.58" y1="8699.66" x2="14195.78" y2="8892.09" xlink:href="#linear-gradient-2"/><linearGradient id="linear-gradient-43" x1="14342.24" y1="8620.32" x2="14333.44" y2="8812.74" xlink:href="#linear-gradient-2"/><linearGradient id="linear-gradient-44" x1="14479.9" y1="8620.32" x2="14471.1" y2="8812.74" xlink:href="#linear-gradient-2"/><linearGradient id="linear-gradient-45" x1="14288.77" y1="8635.97" x2="14144.21" y2="8784.32" xlink:href="#linear-gradient-11"/><linearGradient id="linear-gradient-46" x1="14066.92" y1="8303.36" x2="14058.11" y2="8495.78" xlink:href="#linear-gradient"/><linearGradient id="linear-gradient-47" x1="13929.26" y1="8541.39" x2="13920.45" y2="8733.81" xlink:href="#linear-gradient-2"/><linearGradient id="linear-gradient-48" x1="13929.26" y1="8462.05" x2="13920.45" y2="8654.47" xlink:href="#linear-gradient-2"/><linearGradient id="linear-gradient-49" x1="14066.92" y1="8541.39" x2="14058.11" y2="8733.81" xlink:href="#linear-gradient-2"/><linearGradient id="linear-gradient-50" x1="14066.92" y1="8462.05" x2="14058.11" y2="8654.47" xlink:href="#linear-gradient-2"/><linearGradient id="linear-gradient-51" x1="14066.92" y1="8382.7" x2="14058.11" y2="8575.12" xlink:href="#linear-gradient-2"/><linearGradient id="linear-gradient-52" y1="8398.36" y2="8546.7" xlink:href="#linear-gradient-11"/><linearGradient id="linear-gradient-53" x1="14013.45" y1="8319.01" x2="13868.89" y2="8467.35" xlink:href="#linear-gradient-11"/><linearGradient id="linear-gradient-54" x1="13996.59" y1="8247.91" x2="14062.73" y2="8331.99" xlink:href="#linear-gradient-13"/><linearGradient id="linear-gradient-55" x1="13929.26" y1="8224.03" x2="13920.45" y2="8416.45" xlink:href="#linear-gradient-2"/><linearGradient id="linear-gradient-56" x1="14204.58" y1="8541.39" x2="14195.78" y2="8733.81" xlink:href="#linear-gradient-2"/><linearGradient id="linear-gradient-57" x1="14479.9" y1="8541.39" x2="14471.1" y2="8733.81" xlink:href="#linear-gradient-2"/><linearGradient id="linear-gradient-58" x1="14479.9" y1="8462.05" x2="14471.1" y2="8654.47" xlink:href="#linear-gradient-2"/><linearGradient id="linear-gradient-59" x1="14204.58" y1="8382.7" x2="14195.78" y2="8575.12" xlink:href="#linear-gradient-2"/><linearGradient id="linear-gradient-60" x1="14204.58" y1="8462.05" x2="14195.78" y2="8654.47" xlink:href="#linear-gradient-2"/><linearGradient id="linear-gradient-61" x1="14271.92" y1="8565.29" x2="14338.05" y2="8649.37" xlink:href="#linear-gradient-13"/><linearGradient id="linear-gradient-62" x1="14342.24" y1="8462.05" x2="14333.44" y2="8654.47" xlink:href="#linear-gradient"/><linearGradient id="linear-gradient-63" x1="14342.24" y1="8382.7" x2="14333.44" y2="8575.12" xlink:href="#linear-gradient-2"/><linearGradient id="linear-gradient-64" x1="14564.1" y1="8398.36" x2="14419.53" y2="8546.7" xlink:href="#linear-gradient-11"/><linearGradient id="linear-gradient-65" x1="14564.1" y1="8319.01" x2="14419.53" y2="8467.35" xlink:href="#linear-gradient-11"/><linearGradient id="linear-gradient-66" x1="14426.44" y1="8319.01" x2="14281.87" y2="8467.35" xlink:href="#linear-gradient-11"/><linearGradient id="linear-gradient-67" x1="14204.58" y1="8303.36" x2="14195.78" y2="8495.78" xlink:href="#linear-gradient-2"/><linearGradient id="linear-gradient-68" x1="14342.24" y1="8224.01" x2="14333.44" y2="8416.43" xlink:href="#linear-gradient-2"/><linearGradient id="linear-gradient-69" x1="14479.9" y1="8224.01" x2="14471.1" y2="8416.43" xlink:href="#linear-gradient-2"/><linearGradient id="linear-gradient-70" x1="14288.77" y1="8239.66" x2="14144.21" y2="8388.01" xlink:href="#linear-gradient-11"/><linearGradient id="linear-gradient-71" x1="2988.99" y1="18978.48" x2="2981.36" y2="19145.41" gradientTransform="translate(3345.49 19533.74) rotate(-180)" gradientUnits="userSpaceOnUse"><stop offset="0" stop-color="#a88b5f"/><stop offset=".15" stop-color="#a88b5f"/><stop offset=".37" stop-color="#c2a87b"/><stop offset=".61" stop-color="#ddc798"/><stop offset=".72" stop-color="#ead6a9"/><stop offset=".84" stop-color="#ddc798"/><stop offset="1" stop-color="#a88b5f"/></linearGradient><linearGradient id="linear-gradient-72" x1="2393.45" y1="18928.77" x2="2385.81" y2="19095.69" xlink:href="#linear-gradient-71"/><linearGradient id="linear-gradient-73" x1="2553.19" y1="19455.76" x2="2545.55" y2="19622.68" xlink:href="#linear-gradient-71"/><linearGradient id="linear-gradient-74" x1="2196" y1="19115.43" x2="2188.36" y2="19282.35" xlink:href="#linear-gradient-71"/><linearGradient id="linear-gradient-75" x1="2155.88" y1="19331.44" x2="2148.25" y2="19498.36" xlink:href="#linear-gradient-71"/><linearGradient id="linear-gradient-76" x1="2241.65" y1="19426.31" x2="2319.05" y2="19524.71" xlink:href="#linear-gradient-71"/><linearGradient id="linear-gradient-77" x1="3096.34" y1="19403.8" x2="3210" y2="19548.31" xlink:href="#linear-gradient-71"/><linearGradient id="linear-gradient-78" x1="2909.92" y1="19110.31" x2="2902.29" y2="19277.24" xlink:href="#linear-gradient-71"/><linearGradient id="linear-gradient-79" x1="-76.51" y1="450.44" x2="1272.06" y2="450.44" gradientTransform="matrix(1, 0, 0, 1, 0, 0)" xlink:href="#linear-gradient-71"/><linearGradient id="linear-gradient-80" x1="-81.61" y1="442.1" x2="1275.33" y2="442.1" gradientTransform="matrix(1, 0, 0, 1, 0, 0)" xlink:href="#linear-gradient-71"/><linearGradient id="linear-gradient-81" x1="-86.13" y1="433.82" x2="1277.87" y2="433.82" gradientTransform="matrix(1, 0, 0, 1, 0, 0)" xlink:href="#linear-gradient-71"/><linearGradient id="linear-gradient-82" x1="-90.65" y1="425.54" x2="1280.39" y2="425.54" gradientTransform="matrix(1, 0, 0, 1, 0, 0)" xlink:href="#linear-gradient-71"/><linearGradient id="linear-gradient-83" x1="-95.17" y1="417.26" x2="1282.88" y2="417.26" gradientTransform="matrix(1, 0, 0, 1, 0, 0)" xlink:href="#linear-gradient-71"/><linearGradient id="linear-gradient-84" x1="-99.69" y1="408.98" x2="1285.34" y2="408.98" gradientTransform="matrix(1, 0, 0, 1, 0, 0)" xlink:href="#linear-gradient-71"/><linearGradient id="linear-gradient-85" x1="-104.21" y1="400.7" x2="1287.78" y2="400.7" gradientTransform="matrix(1, 0, 0, 1, 0, 0)" xlink:href="#linear-gradient-71"/><linearGradient id="linear-gradient-86" x1="-108.73" y1="392.42" x2="1290.21" y2="392.42" gradientTransform="matrix(1, 0, 0, 1, 0, 0)" xlink:href="#linear-gradient-71"/><linearGradient id="linear-gradient-87" x1="-113.25" y1="384.13" x2="1292.63" y2="384.13" gradientTransform="matrix(1, 0, 0, 1, 0, 0)" xlink:href="#linear-gradient-71"/><linearGradient id="linear-gradient-88" x1="-117.77" y1="375.85" x2="1295.04" y2="375.85" gradientTransform="matrix(1, 0, 0, 1, 0, 0)" xlink:href="#linear-gradient-71"/><linearGradient id="linear-gradient-89" x1="-122.29" y1="367.56" x2="1297.45" y2="367.56" gradientTransform="matrix(1, 0, 0, 1, 0, 0)" xlink:href="#linear-gradient-71"/><linearGradient id="linear-gradient-90" x1="-126.81" y1="359.28" x2="1299.86" y2="359.28" gradientTransform="matrix(1, 0, 0, 1, 0, 0)" xlink:href="#linear-gradient-71"/></defs><g class="cls-94"><g id="_層_1"><g class="cls-38"><polygon class="cls-4" points="835.5 275.4 756.15 275.4 716.48 344.24 756.15 413.07 835.5 413.07 875.17 344.24 835.5 275.4"/><polygon class="cls-3" points="1073.53 413.07 994.19 413.07 954.51 481.9 994.19 550.73 1073.53 550.73 1113.21 481.9 1073.53 413.07"/><polygon class="cls-34" points="994.19 413.07 914.84 413.07 875.17 481.9 914.84 550.73 994.19 550.73 1033.86 481.9 994.19 413.07"/><polygon class="cls-2" points="1232.22 413.07 1152.88 413.07 1113.21 481.9 1152.88 550.73 1232.22 550.73 1271.9 481.9 1232.22 413.07"/><polygon class="cls-36" points="1152.88 275.4 1073.53 275.4 1033.86 344.24 1073.53 413.07 1152.88 413.07 1192.55 344.24 1152.88 275.4"/><polygon class="cls-35" points="1073.53 275.4 994.19 275.4 954.51 344.24 994.19 413.07 1073.53 413.07 1113.21 344.24 1073.53 275.4"/><polygon class="cls-1" points="994.19 275.4 914.84 275.4 875.17 344.24 914.84 413.07 994.19 413.07 1033.86 344.24 994.19 275.4"/><polygon class="cls-32" points="1232.22 275.4 1152.88 275.4 1113.21 344.24 1152.88 413.07 1232.22 413.07 1271.9 344.24 1232.22 275.4"/><polygon class="cls-33" points="914.84 275.4 835.5 275.4 795.82 344.24 835.5 413.07 914.84 413.07 954.51 344.24 914.84 275.4"/><polygon class="cls-83" points="1152.88 413.07 1073.53 413.07 1033.86 481.9 1073.53 550.73 1152.88 550.73 1192.55 481.9 1152.88 413.07"/><polygon class="cls-25" points="914.84 413.07 835.5 413.07 795.82 481.9 835.5 550.73 914.84 550.73 954.51 481.9 914.84 413.07"/><polygon class="cls-82" points="835.5 413.07 756.15 413.07 716.48 481.9 756.15 550.73 835.5 550.73 875.17 481.9 835.5 413.07"/><polygon class="cls-24" points="756.15 275.4 676.8 275.4 637.13 344.24 676.8 413.07 756.15 413.07 795.82 344.24 756.15 275.4"/><polygon class="cls-77" points="756.17 413.07 676.82 413.07 637.15 481.9 676.82 550.73 756.17 550.73 795.84 481.9 756.17 413.07"/><polygon class="cls-79" points="1232.22 .08 1152.88 .08 1113.21 68.91 1152.88 137.74 1232.22 137.74 1271.9 68.91 1232.22 .08"/><polygon class="cls-80" points="1232.22 137.74 1152.88 137.74 1113.21 206.57 1152.88 275.4 1232.22 275.4 1271.9 206.57 1232.22 137.74"/><polygon class="cls-81" points="1152.88 137.74 1073.53 137.74 1033.86 206.57 1073.53 275.4 1152.88 275.4 1192.55 206.57 1152.88 137.74"/><polygon class="cls-23" points="1073.53 137.74 994.19 137.74 954.51 206.57 994.19 275.4 1073.53 275.4 1113.21 206.57 1073.53 137.74"/><polygon class="cls-19" points="1073.53 -137.58 994.19 -137.58 954.51 -68.75 994.19 .08 1073.53 .08 1113.21 -68.75 1073.53 -137.58"/><polygon class="cls-78" points="994.19 -137.58 914.84 -137.58 875.17 -68.75 914.84 .08 994.19 .08 1033.86 -68.75 994.19 -137.58"/><polygon class="cls-20" points="1152.88 .08 1073.53 .08 1033.86 68.91 1073.53 137.74 1152.88 137.74 1192.55 68.91 1152.88 .08"/><polygon class="cls-22" points="914.84 137.74 835.5 137.74 795.82 206.57 835.5 275.4 914.84 275.4 954.51 206.57 914.84 137.74"/><polygon class="cls-21" points="1232.22 -137.58 1152.88 -137.58 1113.21 -68.75 1152.88 .08 1232.22 .08 1271.9 -68.75 1232.22 -137.58"/><polygon class="cls-85" points="994.19 137.74 914.84 137.74 875.17 206.57 914.84 275.4 994.19 275.4 1033.86 206.57 994.19 137.74"/><polygon class="cls-89" points="1073.53 .08 994.19 .08 954.51 68.91 994.19 137.74 1073.53 137.74 1113.21 68.91 1073.53 .08"/><polygon class="cls-31" points="994.19 .08 914.84 .08 875.17 68.91 914.84 137.74 994.19 137.74 1033.86 68.91 994.19 .08"/><polygon class="cls-84" points="914.84 .08 835.5 .08 795.82 68.91 835.5 137.74 914.84 137.74 954.51 68.91 914.84 .08"/><polygon class="cls-90" points="1152.88 -137.58 1073.53 -137.58 1033.86 -68.75 1073.53 .08 1152.88 .08 1192.55 -68.75 1152.88 -137.58"/><polygon class="cls-29" points="914.84 -137.58 835.5 -137.58 795.82 -68.75 835.5 .08 914.84 .08 954.51 -68.75 914.84 -137.58"/><polygon class="cls-30" points="201.15 413.07 121.8 413.07 82.13 481.9 121.8 550.73 201.15 550.73 240.82 481.9 201.15 413.07"/><polygon class="cls-93" points="280.49 275.4 201.15 275.4 161.47 344.24 201.15 413.07 280.49 413.07 320.17 344.24 280.49 275.4"/><polygon class="cls-92" points="201.15 275.4 121.8 275.4 82.13 344.24 121.8 413.07 201.15 413.07 240.82 344.24 201.15 275.4"/><polygon class="cls-91" points="280.49 413.07 201.15 413.07 161.47 481.9 201.15 550.73 280.49 550.73 320.17 481.9 280.49 413.07"/><polygon class="cls-87" points="280.49 137.74 201.15 137.74 161.47 206.57 201.15 275.4 280.49 275.4 320.17 206.57 280.49 137.74"/><polygon class="cls-27" points="201.15 137.74 121.8 137.74 82.13 206.57 121.8 275.4 201.15 275.4 240.82 206.57 201.15 137.74"/><polygon class="cls-28" points="201.15 -137.58 121.8 -137.58 82.13 -68.75 121.8 .08 201.15 .08 240.82 -68.75 201.15 -137.58"/><polygon class="cls-26" points="280.49 .08 201.15 .08 161.47 68.91 201.15 137.74 280.49 137.74 320.17 68.91 280.49 .08"/><polygon class="cls-86" points="201.15 .08 121.8 .08 82.13 68.91 121.8 137.74 201.15 137.74 240.82 68.91 201.15 .08"/><polygon class="cls-88" points="280.49 -137.58 201.15 -137.58 161.47 -68.75 201.15 .08 280.49 .08 320.17 -68.75 280.49 -137.58"/><polygon class="cls-72" points="835.5 -137.58 756.15 -137.58 716.48 -68.75 756.15 .08 835.5 .08 875.17 -68.75 835.5 -137.58"/><polygon class="cls-71" points="835.5 .08 756.15 .08 716.48 68.91 756.15 137.74 835.5 137.74 875.17 68.91 835.5 .08"/><polygon class="cls-5" points="835.5 137.74 756.15 137.74 716.48 206.57 756.15 275.4 835.5 275.4 875.17 206.57 835.5 137.74"/><polygon class="cls-6" points="756.15 .08 676.8 .08 637.13 68.91 676.8 137.74 756.15 137.74 795.82 68.91 756.15 .08"/><polygon class="cls-74" points="756.15 -137.58 676.8 -137.58 637.13 -68.75 676.8 .08 756.15 .08 795.82 -68.75 756.15 -137.58"/><polygon class="cls-73" points="756.15 137.74 676.8 137.74 637.13 206.57 676.8 275.4 756.15 275.4 795.82 206.57 756.15 137.74"/><polygon class="cls-7" points="439.19 275.4 359.84 275.4 320.17 344.24 359.84 413.07 439.19 413.07 478.86 344.24 439.19 275.4"/><polygon class="cls-8" points="677.22 413.07 597.88 413.07 558.21 481.9 597.88 550.73 677.22 550.73 716.9 481.9 677.22 413.07"/><polygon class="cls-76" points="597.88 413.07 518.53 413.07 478.86 481.9 518.53 550.73 597.88 550.73 637.55 481.9 597.88 413.07"/><polygon class="cls-75" points="677.22 275.4 597.88 275.4 558.21 344.24 597.88 413.07 677.22 413.07 716.9 344.24 677.22 275.4"/><polygon class="cls-14" points="597.88 275.4 518.53 275.4 478.86 344.24 518.53 413.07 597.88 413.07 637.55 344.24 597.88 275.4"/><polygon class="cls-63" points="518.53 275.4 439.19 275.4 399.51 344.24 439.19 413.07 518.53 413.07 558.21 344.24 518.53 275.4"/><polygon class="cls-13" points="518.53 413.07 439.19 413.07 399.51 481.9 439.19 550.73 518.53 550.73 558.21 481.9 518.53 413.07"/><polygon class="cls-62" points="439.19 413.07 359.84 413.07 320.17 481.9 359.84 550.73 439.19 550.73 478.86 481.9 439.19 413.07"/><polygon class="cls-16" points="359.84 275.4 280.5 275.4 240.82 344.24 280.5 413.07 359.84 413.07 399.51 344.24 359.84 275.4"/><polygon class="cls-61" points="359.86 413.07 280.51 413.07 240.84 481.9 280.51 550.73 359.86 550.73 399.53 481.9 359.86 413.07"/><polygon class="cls-15" points="677.22 137.74 597.88 137.74 558.21 206.57 597.88 275.4 677.22 275.4 716.9 206.57 677.22 137.74"/><polygon class="cls-18" points="677.22 -137.58 597.88 -137.58 558.21 -68.75 597.88 .08 677.22 .08 716.9 -68.75 677.22 -137.58"/><polygon class="cls-60" points="597.88 -137.58 518.53 -137.58 478.86 -68.75 518.53 .08 597.88 .08 637.55 -68.75 597.88 -137.58"/><polygon class="cls-17" points="518.53 137.74 439.19 137.74 399.51 206.57 439.19 275.4 518.53 275.4 558.21 206.57 518.53 137.74"/><polygon class="cls-69" points="597.88 137.74 518.53 137.74 478.86 206.57 518.53 275.4 597.88 275.4 637.55 206.57 597.88 137.74"/><polygon class="cls-70" points="677.22 .08 597.88 .08 558.21 68.91 597.88 137.74 677.22 137.74 716.9 68.91 677.22 .08"/><polygon class="cls-12" points="597.88 .08 518.53 .08 478.86 68.91 518.53 137.74 597.88 137.74 637.55 68.91 597.88 .08"/><polygon class="cls-66" points="518.53 .08 439.19 .08 399.51 68.91 439.19 137.74 518.53 137.74 558.21 68.91 518.53 .08"/><polygon class="cls-9" points="518.53 -137.58 439.19 -137.58 399.51 -68.75 439.19 .08 518.53 .08 558.21 -68.75 518.53 -137.58"/><polygon class="cls-68" points="439.19 -137.58 359.84 -137.58 320.17 -68.75 359.84 .08 439.19 .08 478.86 -68.75 439.19 -137.58"/><polygon class="cls-67" points="439.19 .08 359.84 .08 320.17 68.91 359.84 137.74 439.19 137.74 478.86 68.91 439.19 .08"/><polygon class="cls-10" points="439.19 137.74 359.84 137.74 320.17 206.57 359.84 275.4 439.19 275.4 478.86 206.57 439.19 137.74"/><polygon class="cls-11" points="359.84 .08 280.5 .08 240.82 68.91 280.5 137.74 359.84 137.74 399.51 68.91 359.84 .08"/><polygon class="cls-65" points="359.84 -137.58 280.5 -137.58 240.82 -68.75 280.5 .08 359.84 .08 399.51 -68.75 359.84 -137.58"/><polygon class="cls-64" points="359.84 137.74 280.5 137.74 240.82 206.57 280.5 275.4 359.84 275.4 399.51 206.57 359.84 137.74"/></g><g class="cls-39"><polygon class="cls-52" points="359.84 550.73 359.86 550.73 399.53 481.9 359.86 413.07 359.84 413.07 320.17 481.9 359.84 550.73"/><polygon class="cls-53" points="954.51 619.56 954.53 619.56 994.2 550.73 954.53 481.9 954.51 481.9 914.84 550.73 954.51 619.56"/><polygon class="cls-54" points="795.85 68.93 795.87 68.93 835.54 .1 795.87 -68.73 795.85 -68.73 756.18 .1 795.85 68.93"/><polygon class="cls-57" points="1152.88 413.07 1192.55 344.24 1152.88 275.4 1113.21 344.24 1152.88 413.07"/><polygon class="cls-55" points="1192.56 206.53 1232.23 137.7 1192.56 68.87 1152.89 137.7 1192.56 206.53"/><polygon class="cls-56" points="1073.53 137.74 1113.21 68.91 1073.53 .08 1033.86 68.91 1073.53 137.74"/><polygon class="cls-58" points="201.15 137.74 240.82 68.91 201.15 .08 161.47 68.91 201.15 137.74"/><polygon class="cls-59" points="439.19 413.07 478.86 344.24 439.19 275.4 399.51 344.24 439.19 413.07"/></g><g class="cls-37"><path class="cls-40" d="M-76.48,617.89c281.08-15.79,275.66-102.49,460.53-170.15,77.77-28.47,177.47-57.98,305.58-47.07,255.69,21.79,461.22-.47,582.09-117.81"/><path class="cls-43" d="M465.76,419.88c-22.88,5.28-46.63,11.87-74.18,20.56-73.3,23.15-120.36,50.95-165.88,77.84-17.43,10.3-35.46,20.95-54.45,30.98-32.95,17.46-67.99,32.13-114.99,42.97-36.83,8.49-80.99,14.63-137.27,17.92v.07c31.85-1.86,60.05-4.62,86.19-8.44,24.47-3.57,46.44-7.96,67.15-13.43,18.84-4.97,36.36-10.77,53.57-17.73,14.74-5.96,29.6-12.93,45.44-21.32,19-10.03,37.02-20.68,54.46-30.98,45.5-26.88,92.56-54.68,165.84-77.82,44.22-13.97,103.63-30.63,171.23-35.58,43.36-3.18,87.96-2.62,132.56,1.65,52.47,5.02,104.63,6.77,155.02,5.18,46.82-1.48,91.94-5.81,134.1-12.88,17.26-2.89,33.86-6.18,49.86-9.87,39.04-9,74.55-20.44,107.62-34.61,47.46-20.33,90.7-46.63,132.18-80.4l-.11-.03c-69.76,56.78-145.12,93.16-239.61,114.95-16.08,3.71-32.71,6.99-49.97,9.89-87.87,14.73-187.82,17.39-289.06,7.7-23.01-2.2-46.17-3.44-68.84-3.66-21.29-.21-42.74,.47-63.76,2.01-29.74,2.18-59.59,6.66-91.24,13.69-1.95,.43-3.91,.88-5.88,1.33Z"/><path class="cls-44" d="M435.85,423.98c-11.63,2.68-23.77,5.72-36.71,9.18-38,10.17-71.92,22.38-106.72,38.42-30.72,14.16-57.31,29.06-85.45,44.84-12.4,6.95-25.22,14.14-38.32,21.19-65.16,35.24-127.63,57.14-254.16,64.82l-.02,.14c32.43-1.97,60.91-4.87,87.05-8.88,24.43-3.75,46.32-8.39,66.92-14.18,18.55-5.22,36.06-11.39,53.53-18.87,14.59-6.25,29.49-13.54,46.87-22.94,13.1-7.05,25.93-14.24,38.33-21.19,55.89-31.32,108.67-60.91,192.07-83.23,44.69-11.96,104.52-25.82,171.05-26.9,42.26-.68,86.32,1.37,130.95,6.1,53.57,5.69,106.9,6.88,158.5,3.55,23.8-1.54,47.17-4.05,69.45-7.47,21.37-3.28,41.88-7.41,60.96-12.28,56.54-14.43,103.85-30.72,148.9-51.28,45.64-20.83,89.39-46.2,137.68-79.86l-.21-.06c-94.44,65.82-174.76,102.58-286.46,131.08-4.32,1.1-8.7,2.17-13.11,3.19-81.04,18.69-178.27,23.32-275.6,12.99-44.66-4.74-88.74-6.79-131.02-6.11-28.83,.47-58.19,3.32-89.75,8.71-14.48,2.47-29.15,5.43-44.73,9.02Z"/><path class="cls-45" d="M386.27,430.21c-81.57,18.81-137.64,49.95-196.75,82.77-7.65,4.25-15.56,8.64-23.48,12.98-61.15,33.68-118.83,60.13-256.07,68.74l-.03,.2c63.4-3.98,112.52-11.69,154.59-24.26,37.9-11.33,68.11-26.01,101.8-44.57,7.92-4.34,15.84-8.73,23.49-12.98,59.06-32.8,115.1-63.92,196.58-82.71,6.64-1.53,13.43-2.98,20.42-4.34,56.59-11.02,112.24-20.71,170.87-18.22,40.86,1.73,83.18,5.19,129.37,10.56,52.98,6.16,107.21,6.36,161.18,.6,44.02-4.7,86.92-13.21,127.52-25.29,50.65-15.06,94.34-32.42,141.65-56.29,44.4-22.39,88.63-48.85,141.85-81.12l-.3-.11c-106.54,64.59-177.22,105.78-283.35,137.34-64.18,19.09-166.31,38.86-288.37,24.66-46.21-5.38-88.54-8.83-129.42-10.56-26.98-1.15-55.75,.25-87.94,4.28-29.47,3.68-58.37,9.14-83.14,13.96-7,1.36-13.81,2.81-20.46,4.35Z"/><path class="cls-46" d="M378.43,425.85c-34.35,7.92-67.26,18.34-99.79,31.55-42.16,17.12-80.29,37.47-115.22,56.91-70.34,39.37-122.81,63.91-257.98,72.67l-.04,.27c64.16-4.16,113.48-12.24,155.21-25.46,39.69-12.57,70.22-28.87,103.19-47.32,71.34-39.7,144.19-76.9,250.57-95.64,65.35-11.51,121.18-14.64,170.67-9.55,40.29,4.14,80.22,9,127.79,15.02,53.91,6.82,109.18,6.22,164.29-1.76,54.34-7.87,97.54-21.44,124.22-31.43,71.07-26.62,121.79-55.25,186.01-91.49,27.38-15.46,58.42-32.97,94.36-52.16l-.37-.16c-35.95,19.19-66.98,36.71-94.37,52.17-64.19,36.23-114.89,64.85-185.9,91.44-51.84,19.42-158.2,49.54-288,33.13-47.58-6.02-87.52-10.87-127.81-15.02-49.59-5.1-105.52-1.98-170.98,9.56-12.15,2.14-24.09,4.56-35.86,7.28Z"/><path class="cls-41" d="M358.6,422.7c-26.05,6.01-51.4,13.55-76.5,22.75-38.77,14.2-77.31,32.38-121.29,57.21-68.65,38.98-118.24,67.14-259.88,76.59l-.05,.34c65.79-4.39,113.86-12.62,155.83-26.66,39.87-13.34,71.31-31.19,104.58-50.08,91.89-51.88,169.84-79.17,260.64-91.24,64.68-8.6,122.05-8.89,170.49-.87,37.43,6.2,81.14,13.32,126.23,19.47,55,7.51,111.31,6.11,167.36-4.15,54.42-9.96,95.82-25.92,120.98-37.55,46.04-21.28,81.87-42.45,119.8-64.86,41.58-24.56,88.7-52.4,157.42-85.04l-.43-.22c-68.76,32.66-115.9,60.5-157.49,85.08-37.91,22.4-73.73,43.56-119.72,64.82-40.61,18.77-149.92,60.39-287.62,41.59-45.07-6.15-88.77-13.28-126.2-19.47-48.56-8.04-106.05-7.74-170.87,.87-21.68,2.88-42.71,6.67-63.29,11.42Z"/><path class="cls-42" d="M340.92,418.02c-62.61,14.44-122.15,38.33-182.71,72.99l-5.32,3.06c-71.07,40.92-118.03,67.95-256.47,77.46l-.05,.4c138.81-9.53,185.87-36.62,257.11-77.63l5.32-3.06c88.2-50.47,174.22-78.07,270.69-86.85,64.95-5.91,122.25-3.29,170.3,7.79,45.99,10.61,85.6,18.21,124.67,23.94,56.2,8.24,113.51,6.03,170.35-6.56,1.38-.31,2.77-.62,4.13-.94,55.6-12.82,94.95-32.17,113.7-42.72,31.29-17.61,56.98-34.63,81.83-51.08,48.23-31.94,98.1-64.96,192.24-105.05l-.47-.28c-94.23,40.13-144.14,73.18-192.41,105.14-24.83,16.45-50.51,33.45-81.77,51.04-30.47,17.15-141.23,71.45-287.22,50.05-39.03-5.72-78.62-13.32-124.58-23.92-48.19-11.11-105.64-13.74-170.76-7.82-30.43,2.77-59.83,7.41-88.57,14.04Z"/><path class="cls-50" d="M325.15,412.16c-12.19,2.81-24.24,5.98-36.12,9.51-46.07,13.67-90.97,33.08-133.45,57.69-4.56,2.66-9,5.25-13.34,7.79-68.99,40.39-114.57,67.08-250.36,76.65l-.06,.47c64.05-4.51,110.41-12.72,150.31-26.62,36.98-12.88,65.14-29.37,100.79-50.24,4.34-2.54,8.77-5.14,13.33-7.79,85.7-49.64,180.15-77.38,280.73-82.45,64.38-3.25,123.21,2.44,170.13,16.45,43.24,12.91,83.51,22.2,123.11,28.4,57.46,9,115.72,5.97,173.24-8.97,42.79-11.12,84.62-29.26,114.78-49.77,22.64-15.39,41.43-29.83,59.59-43.79,49.97-38.41,97.17-74.69,211.31-118.56l-.49-.35c-114.31,43.93-161.57,80.26-211.6,118.72-18.16,13.96-36.93,28.39-59.55,43.76-57.04,38.78-166.37,77.36-286.82,58.5-39.54-6.19-79.76-15.47-122.95-28.37-47.07-14.05-106.07-19.76-170.65-16.51-38.21,1.93-75.73,7.12-111.95,15.47Z"/><path class="cls-51" d="M311.68,405.08c-6.44,1.49-12.85,3.08-19.21,4.77-49.54,13.19-96.48,32.66-139.49,57.86-7.22,4.24-14.09,8.34-20.73,12.31-69.39,41.41-111.27,66.4-244.87,76.06l-.06,.54c63.1-4.56,108.57-12.71,147.44-26.45,36.11-12.75,63.55-29.13,98.29-49.86,6.64-3.96,13.5-8.06,20.72-12.3,85.2-49.91,185.74-76.91,290.77-78.06,64.82-.71,123.59,7.97,169.95,25.11,41.78,15.45,81.54,26.2,121.56,32.87,57.93,9.66,118.8,5.73,176.04-11.36,61.77-18.44,98.79-45.24,111.83-55.91,17.4-14.22,31.9-27.4,45.92-40.14,50.97-46.3,91.22-82.88,221.8-128.43l-.51-.42c-60,20.93-104.94,41.4-141.43,64.42-32.95,20.78-56.2,41.9-80.81,64.26-14.02,12.74-28.51,25.9-45.89,40.11-43.27,35.39-152.3,89.31-286.41,66.95-39.93-6.66-79.61-17.39-121.32-32.81-46.52-17.2-105.49-25.92-170.53-25.2-45.42,.5-90.08,5.77-133.05,15.68Z"/><path class="cls-49" d="M299.89,397.11c-1.35,.31-2.69,.62-4.03,.94-52.77,12.57-101.72,32.08-145.5,58-9.78,5.81-18.82,11.31-27.56,16.64-67.45,41.09-108.15,65.9-239.95,75.65l-.06,.61c132.37-9.8,173.23-34.69,240.92-75.93,8.73-5.32,17.77-10.83,27.55-16.63,85.25-50.48,192.08-76.64,300.79-73.67,65.37,1.79,124.08,13.47,169.78,33.78,40.55,18.02,79.8,30.23,120,37.34,48.3,8.54,97.29,7.11,145.43-4.21,67.28-15.82,117.61-47.35,142.28-71.59,14.02-13.77,25.68-26.45,36.96-38.7,48.09-52.27,82.84-90.03,227.58-136.07l-.51-.5c-66.81,21.25-114.73,42.31-150.8,66.27-33,21.92-53.57,44.27-77.38,70.15-11.27,12.25-22.93,24.92-36.93,38.67-24.55,24.12-74.62,55.49-141.53,71.22-.51,.12-1.03,.24-1.54,.36-47.37,10.93-95.45,12.21-142.93,3.81-40.08-7.09-79.23-19.27-119.69-37.25-45.87-20.38-104.79-32.1-170.4-33.89-51.88-1.42-103.15,3.63-152.47,15Z"/><path class="cls-48" d="M289.51,388.43c-52.03,12-99.67,30.81-141.76,55.98-12.28,7.35-23.28,14.2-33.92,20.83-65.61,40.86-105.2,65.52-235.5,75.38l-.07,.67c130.93-9.9,170.7-34.67,236.58-75.7,10.63-6.62,21.63-13.47,33.89-20.81,86.98-52.01,197.36-76.61,310.81-69.28,65.08,4.21,125.32,19.28,169.62,42.43,39.4,20.6,78.15,34.27,118.45,41.82,48.22,9.03,96.91,7.48,144.69-4.56,70.76-17.84,121.19-54.12,142.88-79.77,11.69-13.82,21.31-26.48,30.62-38.71,42.57-55.98,73.32-96.42,230.73-142.27l-.51-.57c-157.97,46.01-188.81,86.57-231.51,142.72-9.3,12.23-18.92,24.88-30.59,38.69-21.57,25.51-71.71,61.59-142.04,79.32-47.42,11.95-95.69,13.47-143.56,4.51-40.15-7.51-78.76-21.15-118.06-41.69-44.47-23.24-104.94-38.37-170.27-42.59-54.3-3.51-108.41,.35-160.8,11.47-3.24,.69-6.48,1.4-9.69,2.15Z"/><path class="cls-47" d="M280.71,379.04c-49.68,11.46-95.56,29.56-135.58,53.71-14.71,8.88-27.49,17.02-39.85,24.89-63.87,40.7-102.42,65.26-231.48,75.24l-.07,.74c129.78-10.03,168.51-34.71,232.68-75.6,12.35-7.87,25.12-16.01,39.81-24.87,63.87-38.55,142.77-61.62,228.14-66.72,99.54-5.95,197.54,13.84,262.15,52.93,38.84,23.5,79.3,39.29,120.25,46.94,36,6.72,72.5,7.21,108.49,1.45,39.23-6.28,77.76-20.1,111.41-39.96,27.85-16.43,51.23-36.48,64.16-54.99,9.94-14.23,17.97-27.19,25.74-39.73,38.15-61.55,63.35-102.22,232.42-147.46l-.5-.64c-169.78,45.43-195.08,86.24-233.36,148.02-7.77,12.53-15.8,25.49-25.73,39.7-25.17,36.03-90.47,80.92-174.33,94.35-76.35,12.23-154.95-4.45-227.29-48.21-64.86-39.24-163.29-59.11-263.29-53.13-32.34,1.93-63.76,6.43-93.78,13.35Z"/></g></g></g></svg>