<?xml version="1.0" encoding="UTF-8"?><svg id="_層_1" xmlns="http://www.w3.org/2000/svg" xmlns:xlink="http://www.w3.org/1999/xlink" viewBox="0 0 1200 550"><defs><style>.cls-1{stroke:url(#linear-gradient-8);}.cls-1,.cls-2,.cls-3,.cls-4,.cls-5,.cls-6,.cls-7,.cls-8,.cls-9,.cls-10,.cls-11,.cls-12{fill:none;stroke-miterlimit:10;}.cls-2{stroke:url(#linear-gradient-9);}.cls-3{stroke:url(#linear-gradient-5);}.cls-4{stroke:url(#linear-gradient-6);}.cls-5{stroke:url(#linear-gradient-7);}.cls-6{stroke:url(#linear-gradient-2);}.cls-7{stroke:url(#linear-gradient-4);}.cls-8{stroke:url(#linear-gradient-3);}.cls-9{stroke:url(#linear-gradient);}.cls-13{opacity:.61;}.cls-10{stroke:url(#linear-gradient-12);}.cls-11{stroke:url(#linear-gradient-11);}.cls-12{stroke:url(#linear-gradient-10);}</style><linearGradient id="linear-gradient" x1="-76.51" y1="450.44" x2="1272.06" y2="450.44" gradientTransform="matrix(1, 0, 0, 1, 0, 0)" gradientUnits="userSpaceOnUse"><stop offset="0" stop-color="#a88b5f"/><stop offset=".15" stop-color="#a88b5f"/><stop offset=".37" stop-color="#c2a87b"/><stop offset=".61" stop-color="#ddc798"/><stop offset=".72" stop-color="#ead6a9"/><stop offset=".84" stop-color="#ddc798"/><stop offset="1" stop-color="#a88b5f"/></linearGradient><linearGradient id="linear-gradient-2" x1="-81.61" y1="442.1" x2="1275.33" y2="442.1" xlink:href="#linear-gradient"/><linearGradient id="linear-gradient-3" x1="-86.13" y1="433.82" x2="1277.87" y2="433.82" xlink:href="#linear-gradient"/><linearGradient id="linear-gradient-4" x1="-90.65" y1="425.54" x2="1280.39" y2="425.54" xlink:href="#linear-gradient"/><linearGradient id="linear-gradient-5" x1="-95.17" y1="417.26" x2="1282.88" y2="417.26" xlink:href="#linear-gradient"/><linearGradient id="linear-gradient-6" x1="-99.69" y1="408.98" x2="1285.34" y2="408.98" xlink:href="#linear-gradient"/><linearGradient id="linear-gradient-7" x1="-104.21" y1="400.7" x2="1287.78" y2="400.7" xlink:href="#linear-gradient"/><linearGradient id="linear-gradient-8" x1="-108.73" y1="392.42" x2="1290.21" y2="392.42" xlink:href="#linear-gradient"/><linearGradient id="linear-gradient-9" x1="-113.25" y1="384.13" x2="1292.63" y2="384.13" xlink:href="#linear-gradient"/><linearGradient id="linear-gradient-10" x1="-117.77" y1="375.85" x2="1295.04" y2="375.85" xlink:href="#linear-gradient"/><linearGradient id="linear-gradient-11" x1="-122.29" y1="367.56" x2="1297.45" y2="367.56" xlink:href="#linear-gradient"/><linearGradient id="linear-gradient-12" x1="-126.81" y1="359.28" x2="1299.86" y2="359.28" xlink:href="#linear-gradient"/></defs><g class="cls-13"><path class="cls-9" d="M-76.48,617.89c281.08-15.79,275.66-102.49,460.53-170.15,77.77-28.47,177.47-57.98,305.58-47.07,255.69,21.79,461.22-.47,582.09-117.81"/><path class="cls-6" d="M465.76,419.88c-22.88,5.28-46.63,11.87-74.18,20.56-73.3,23.15-120.36,50.95-165.88,77.84-17.43,10.3-35.46,20.95-54.45,30.98-32.95,17.46-67.99,32.13-114.99,42.97-36.83,8.49-80.99,14.63-137.27,17.92v.07c31.85-1.86,60.05-4.62,86.19-8.44,24.47-3.57,46.44-7.96,67.15-13.43,18.84-4.97,36.36-10.77,53.57-17.73,14.74-5.96,29.6-12.93,45.44-21.32,19-10.03,37.02-20.68,54.46-30.98,45.5-26.88,92.56-54.68,165.84-77.82,44.22-13.97,103.63-30.63,171.23-35.58,43.36-3.18,87.96-2.62,132.56,1.65,52.47,5.02,104.63,6.77,155.02,5.18,46.82-1.48,91.94-5.81,134.1-12.88,17.26-2.89,33.86-6.18,49.86-9.87,39.04-9,74.55-20.44,107.62-34.61,47.46-20.33,90.7-46.63,132.18-80.4l-.11-.03c-69.76,56.78-145.12,93.16-239.61,114.95-16.08,3.71-32.71,6.99-49.97,9.89-87.87,14.73-187.82,17.39-289.06,7.7-23.01-2.2-46.17-3.44-68.84-3.66-21.29-.21-42.74,.47-63.76,2.01-29.74,2.18-59.59,6.66-91.24,13.69-1.95,.43-3.91,.88-5.88,1.33Z"/><path class="cls-8" d="M435.85,423.98c-11.63,2.68-23.77,5.72-36.71,9.18-38,10.17-71.92,22.38-106.72,38.42-30.72,14.16-57.31,29.06-85.45,44.84-12.4,6.95-25.22,14.14-38.32,21.19-65.16,35.24-127.63,57.14-254.16,64.82l-.02,.14c32.43-1.97,60.91-4.87,87.05-8.88,24.43-3.75,46.32-8.39,66.92-14.18,18.55-5.22,36.06-11.39,53.53-18.87,14.59-6.25,29.49-13.54,46.87-22.94,13.1-7.05,25.93-14.24,38.33-21.19,55.89-31.32,108.67-60.91,192.07-83.23,44.69-11.96,104.52-25.82,171.05-26.9,42.26-.68,86.32,1.37,130.95,6.1,53.57,5.69,106.9,6.88,158.5,3.55,23.8-1.54,47.17-4.05,69.45-7.47,21.37-3.28,41.88-7.41,60.96-12.28,56.54-14.43,103.85-30.72,148.9-51.28,45.64-20.83,89.39-46.2,137.68-79.86l-.21-.06c-94.44,65.82-174.76,102.58-286.46,131.08-4.32,1.1-8.7,2.17-13.11,3.19-81.04,18.69-178.27,23.32-275.6,12.99-44.66-4.74-88.74-6.79-131.02-6.11-28.83,.47-58.19,3.32-89.75,8.71-14.48,2.47-29.15,5.43-44.73,9.02Z"/><path class="cls-7" d="M386.27,430.21c-81.57,18.81-137.64,49.95-196.75,82.77-7.65,4.25-15.56,8.64-23.48,12.98-61.15,33.68-118.83,60.13-256.07,68.74l-.03,.2c63.4-3.98,112.52-11.69,154.59-24.26,37.9-11.33,68.11-26.01,101.8-44.57,7.92-4.34,15.84-8.73,23.49-12.98,59.06-32.8,115.1-63.92,196.58-82.71,6.64-1.53,13.43-2.98,20.42-4.34,56.59-11.02,112.24-20.71,170.87-18.22,40.86,1.73,83.18,5.19,129.37,10.56,52.98,6.16,107.21,6.36,161.18,.6,44.02-4.7,86.92-13.21,127.52-25.29,50.65-15.06,94.34-32.42,141.65-56.29,44.4-22.39,88.63-48.85,141.85-81.12l-.3-.11c-106.54,64.59-177.22,105.78-283.35,137.34-64.18,19.09-166.31,38.86-288.37,24.66-46.21-5.38-88.54-8.83-129.42-10.56-26.98-1.15-55.75,.25-87.94,4.28-29.47,3.68-58.37,9.14-83.14,13.96-7,1.36-13.81,2.81-20.46,4.35Z"/><path class="cls-3" d="M378.43,425.85c-34.35,7.92-67.26,18.34-99.79,31.55-42.16,17.12-80.29,37.47-115.22,56.91-70.34,39.37-122.81,63.91-257.98,72.67l-.04,.27c64.16-4.16,113.48-12.24,155.21-25.46,39.69-12.57,70.22-28.87,103.19-47.32,71.34-39.7,144.19-76.9,250.57-95.64,65.35-11.51,121.18-14.64,170.67-9.55,40.29,4.14,80.22,9,127.79,15.02,53.91,6.82,109.18,6.22,164.29-1.76,54.34-7.87,97.54-21.44,124.22-31.43,71.07-26.62,121.79-55.25,186.01-91.49,27.38-15.46,58.42-32.97,94.36-52.16l-.37-.16c-35.95,19.19-66.98,36.71-94.37,52.17-64.19,36.23-114.89,64.85-185.9,91.44-51.84,19.42-158.2,49.54-288,33.13-47.58-6.02-87.52-10.87-127.81-15.02-49.59-5.1-105.52-1.98-170.98,9.56-12.15,2.14-24.09,4.56-35.86,7.28Z"/><path class="cls-4" d="M358.6,422.7c-26.05,6.01-51.4,13.55-76.5,22.75-38.77,14.2-77.31,32.38-121.29,57.21-68.65,38.98-118.24,67.14-259.88,76.59l-.05,.34c65.79-4.39,113.86-12.62,155.83-26.66,39.87-13.34,71.31-31.19,104.58-50.08,91.89-51.88,169.84-79.17,260.64-91.24,64.68-8.6,122.05-8.89,170.49-.87,37.43,6.2,81.14,13.32,126.23,19.47,55,7.51,111.31,6.11,167.36-4.15,54.42-9.96,95.82-25.92,120.98-37.55,46.04-21.28,81.87-42.45,119.8-64.86,41.58-24.56,88.7-52.4,157.42-85.04l-.43-.22c-68.76,32.66-115.9,60.5-157.49,85.08-37.91,22.4-73.73,43.56-119.72,64.82-40.61,18.77-149.92,60.39-287.62,41.59-45.07-6.15-88.77-13.28-126.2-19.47-48.56-8.04-106.05-7.74-170.87,.87-21.68,2.88-42.71,6.67-63.29,11.42Z"/><path class="cls-5" d="M340.92,418.02c-62.61,14.44-122.15,38.33-182.71,72.99l-5.32,3.06c-71.07,40.92-118.03,67.95-256.47,77.46l-.05,.4c138.81-9.53,185.87-36.62,257.11-77.63l5.32-3.06c88.2-50.47,174.22-78.07,270.69-86.85,64.95-5.91,122.25-3.29,170.3,7.79,45.99,10.61,85.6,18.21,124.67,23.94,56.2,8.24,113.51,6.03,170.35-6.56,1.38-.31,2.77-.62,4.13-.94,55.6-12.82,94.95-32.17,113.7-42.72,31.29-17.61,56.98-34.63,81.83-51.08,48.23-31.94,98.1-64.96,192.24-105.05l-.47-.28c-94.23,40.13-144.14,73.18-192.41,105.14-24.83,16.45-50.51,33.45-81.77,51.04-30.47,17.15-141.23,71.45-287.22,50.05-39.03-5.72-78.62-13.32-124.58-23.92-48.19-11.11-105.64-13.74-170.76-7.82-30.43,2.77-59.83,7.41-88.57,14.04Z"/><path class="cls-1" d="M325.15,412.16c-12.19,2.81-24.24,5.98-36.12,9.51-46.07,13.67-90.97,33.08-133.45,57.69-4.56,2.66-9,5.25-13.34,7.79-68.99,40.39-114.57,67.08-250.36,76.65l-.06,.47c64.05-4.51,110.41-12.72,150.31-26.62,36.98-12.88,65.14-29.37,100.79-50.24,4.34-2.54,8.77-5.14,13.33-7.79,85.7-49.64,180.15-77.38,280.73-82.45,64.38-3.25,123.21,2.44,170.13,16.45,43.24,12.91,83.51,22.2,123.11,28.4,57.46,9,115.72,5.97,173.24-8.97,42.79-11.12,84.62-29.26,114.78-49.77,22.64-15.39,41.43-29.83,59.59-43.79,49.97-38.41,97.17-74.69,211.31-118.56l-.49-.35c-114.31,43.93-161.57,80.26-211.6,118.72-18.16,13.96-36.93,28.39-59.55,43.76-57.04,38.78-166.37,77.36-286.82,58.5-39.54-6.19-79.76-15.47-122.95-28.37-47.07-14.05-106.07-19.76-170.65-16.51-38.21,1.93-75.73,7.12-111.95,15.47Z"/><path class="cls-2" d="M311.68,405.08c-6.44,1.49-12.85,3.08-19.21,4.77-49.54,13.19-96.48,32.66-139.49,57.86-7.22,4.24-14.09,8.34-20.73,12.31-69.39,41.41-111.27,66.4-244.87,76.06l-.06,.54c63.1-4.56,108.57-12.71,147.44-26.45,36.11-12.75,63.55-29.13,98.29-49.86,6.64-3.96,13.5-8.06,20.72-12.3,85.2-49.91,185.74-76.91,290.77-78.06,64.82-.71,123.59,7.97,169.95,25.11,41.78,15.45,81.54,26.2,121.56,32.87,57.93,9.66,118.8,5.73,176.04-11.36,61.77-18.44,98.79-45.24,111.83-55.91,17.4-14.22,31.9-27.4,45.92-40.14,50.97-46.3,91.22-82.88,221.8-128.43l-.51-.42c-60,20.93-104.94,41.4-141.43,64.42-32.95,20.78-56.2,41.9-80.81,64.26-14.02,12.74-28.51,25.9-45.89,40.11-43.27,35.39-152.3,89.31-286.41,66.95-39.93-6.66-79.61-17.39-121.32-32.81-46.52-17.2-105.49-25.92-170.53-25.2-45.42,.5-90.08,5.77-133.05,15.68Z"/><path class="cls-12" d="M299.89,397.11c-1.35,.31-2.69,.62-4.03,.94-52.77,12.57-101.72,32.08-145.5,58-9.78,5.81-18.82,11.31-27.56,16.64-67.45,41.09-108.15,65.9-239.95,75.65l-.06,.61c132.37-9.8,173.23-34.69,240.92-75.93,8.73-5.32,17.77-10.83,27.55-16.63,85.25-50.48,192.08-76.64,300.79-73.67,65.37,1.79,124.08,13.47,169.78,33.78,40.55,18.02,79.8,30.23,120,37.34,48.3,8.54,97.29,7.11,145.43-4.21,67.28-15.82,117.61-47.35,142.28-71.59,14.02-13.77,25.68-26.45,36.96-38.7,48.09-52.27,82.84-90.03,227.58-136.07l-.51-.5c-66.81,21.25-114.73,42.31-150.8,66.27-33,21.92-53.57,44.27-77.38,70.15-11.27,12.25-22.93,24.92-36.93,38.67-24.55,24.12-74.62,55.49-141.53,71.22-.51,.12-1.03,.24-1.54,.36-47.37,10.93-95.45,12.21-142.93,3.81-40.08-7.09-79.23-19.27-119.69-37.25-45.87-20.38-104.79-32.1-170.4-33.89-51.88-1.42-103.15,3.63-152.47,15Z"/><path class="cls-11" d="M289.51,388.43c-52.03,12-99.67,30.81-141.76,55.98-12.28,7.35-23.28,14.2-33.92,20.83-65.61,40.86-105.2,65.52-235.5,75.38l-.07,.67c130.93-9.9,170.7-34.67,236.58-75.7,10.63-6.62,21.63-13.47,33.89-20.81,86.98-52.01,197.36-76.61,310.81-69.28,65.08,4.21,125.32,19.28,169.62,42.43,39.4,20.6,78.15,34.27,118.45,41.82,48.22,9.03,96.91,7.48,144.69-4.56,70.76-17.84,121.19-54.12,142.88-79.77,11.69-13.82,21.31-26.48,30.62-38.71,42.57-55.98,73.32-96.42,230.73-142.27l-.51-.57c-157.97,46.01-188.81,86.57-231.51,142.72-9.3,12.23-18.92,24.88-30.59,38.69-21.57,25.51-71.71,61.59-142.04,79.32-47.42,11.95-95.69,13.47-143.56,4.51-40.15-7.51-78.76-21.15-118.06-41.69-44.47-23.24-104.94-38.37-170.27-42.59-54.3-3.51-108.41,.35-160.8,11.47-3.24,.69-6.48,1.4-9.69,2.15Z"/><path class="cls-10" d="M280.71,379.04c-49.68,11.46-95.56,29.56-135.58,53.71-14.71,8.88-27.49,17.02-39.85,24.89-63.87,40.7-102.42,65.26-231.48,75.24l-.07,.74c129.78-10.03,168.51-34.71,232.68-75.6,12.35-7.87,25.12-16.01,39.81-24.87,63.87-38.55,142.77-61.62,228.14-66.72,99.54-5.95,197.54,13.84,262.15,52.93,38.84,23.5,79.3,39.29,120.25,46.94,36,6.72,72.5,7.21,108.49,1.45,39.23-6.28,77.76-20.1,111.41-39.96,27.85-16.43,51.23-36.48,64.16-54.99,9.94-14.23,17.97-27.19,25.74-39.73,38.15-61.55,63.35-102.22,232.42-147.46l-.5-.64c-169.78,45.43-195.08,86.24-233.36,148.02-7.77,12.53-15.8,25.49-25.73,39.7-25.17,36.03-90.47,80.92-174.33,94.35-76.35,12.23-154.95-4.45-227.29-48.21-64.86-39.24-163.29-59.11-263.29-53.13-32.34,1.93-63.76,6.43-93.78,13.35Z"/></g></svg>