<?xml version="1.0" encoding="UTF-8"?><svg xmlns="http://www.w3.org/2000/svg" xmlns:xlink="http://www.w3.org/1999/xlink" viewBox="0 0 1200 550"><defs><style>.cls-1{fill:url(#linear-gradient-7);}.cls-1,.cls-2,.cls-3,.cls-4,.cls-5,.cls-6,.cls-7,.cls-8,.cls-9,.cls-10,.cls-11,.cls-12,.cls-13,.cls-14,.cls-15,.cls-16,.cls-17,.cls-18,.cls-19,.cls-20,.cls-21,.cls-22,.cls-23,.cls-24,.cls-25,.cls-26,.cls-27,.cls-28,.cls-29,.cls-30,.cls-31{mix-blend-mode:multiply;}.cls-2{fill:url(#linear-gradient-4);}.cls-3{fill:url(#linear-gradient-2);}.cls-32{fill:url(#linear-gradient-8);}.cls-33{fill:url(#linear-gradient-9);}.cls-34{fill:url(#linear-gradient-3);}.cls-35{fill:url(#linear-gradient-6);}.cls-36{fill:url(#linear-gradient-5);}.cls-37{opacity:.55;}.cls-4{fill:url(#linear-gradient);}.cls-38{fill:url(#linear-gradient-58);}.cls-39{fill:url(#linear-gradient-55);}.cls-40{fill:url(#linear-gradient-53);}.cls-41{fill:url(#linear-gradient-51);}.cls-42{fill:url(#linear-gradient-70);}.cls-43{fill:url(#linear-gradient-69);}.cls-44{fill:url(#linear-gradient-63);}.cls-45{fill:url(#linear-gradient-66);}.cls-46{fill:url(#linear-gradient-65);}.cls-47{fill:url(#linear-gradient-60);}.cls-48{fill:url(#linear-gradient-61);}.cls-49{fill:url(#linear-gradient-41);}.cls-50{fill:url(#linear-gradient-40);}.cls-51{fill:url(#linear-gradient-45);}.cls-52{fill:url(#linear-gradient-44);}.cls-53{fill:url(#linear-gradient-49);}.cls-54{fill:url(#linear-gradient-48);}.cls-55{fill:url(#linear-gradient-14);}.cls-56{fill:url(#linear-gradient-20);}.cls-57{fill:url(#linear-gradient-15);}.cls-58{fill:url(#linear-gradient-16);}.cls-59{fill:url(#linear-gradient-17);}.cls-60{fill:url(#linear-gradient-12);}.cls-61{fill:url(#linear-gradient-10);}.cls-62{fill:url(#linear-gradient-27);}.cls-63{fill:url(#linear-gradient-24);}.cls-64{fill:url(#linear-gradient-38);}.cls-65{fill:url(#linear-gradient-34);}.cls-66{fill:url(#linear-gradient-39);}.cls-67{fill:url(#linear-gradient-25);}.cls-68{fill:url(#linear-gradient-28);}.cls-69{fill:url(#linear-gradient-33);}.cls-70{fill:url(#linear-gradient-32);}.cls-71{fill:url(#linear-gradient-31);}.cls-72{isolation:isolate;}.cls-5{fill:url(#linear-gradient-42);}.cls-6{fill:url(#linear-gradient-43);}.cls-7{fill:url(#linear-gradient-46);}.cls-8{fill:url(#linear-gradient-47);}.cls-9{fill:url(#linear-gradient-64);}.cls-10{fill:url(#linear-gradient-67);}.cls-11{fill:url(#linear-gradient-68);}.cls-12{fill:url(#linear-gradient-62);}.cls-13{fill:url(#linear-gradient-52);}.cls-14{fill:url(#linear-gradient-50);}.cls-15{fill:url(#linear-gradient-56);}.cls-16{fill:url(#linear-gradient-54);}.cls-17{fill:url(#linear-gradient-59);}.cls-18{fill:url(#linear-gradient-57);}.cls-19{fill:url(#linear-gradient-19);}.cls-20{fill:url(#linear-gradient-21);}.cls-21{fill:url(#linear-gradient-23);}.cls-22{fill:url(#linear-gradient-22);}.cls-23{fill:url(#linear-gradient-18);}.cls-24{fill:url(#linear-gradient-13);}.cls-25{fill:url(#linear-gradient-11);}.cls-26{fill:url(#linear-gradient-37);}.cls-27{fill:url(#linear-gradient-35);}.cls-28{fill:url(#linear-gradient-36);}.cls-29{fill:url(#linear-gradient-29);}.cls-30{fill:url(#linear-gradient-30);}.cls-31{fill:url(#linear-gradient-26);}</style><linearGradient id="linear-gradient" x1="14066.92" y1="8699.66" x2="14058.11" y2="8892.09" gradientTransform="translate(-8010.92 14406.25) rotate(-90)" gradientUnits="userSpaceOnUse"><stop offset="0" stop-color="#404041"/><stop offset="0" stop-color="#444445"/><stop offset=".05" stop-color="#696969"/><stop offset=".11" stop-color="#89898a"/><stop offset=".16" stop-color="#a4a4a4"/><stop offset=".23" stop-color="#bababa"/><stop offset=".31" stop-color="#cbcbcb"/><stop offset=".4" stop-color="#d7d7d7"/><stop offset=".54" stop-color="#dedede"/><stop offset=".91" stop-color="#e0e0e0"/></linearGradient><linearGradient id="linear-gradient-2" x1="13929.26" y1="8937.7" x2="13920.45" y2="9130.12" gradientTransform="translate(-8010.92 14406.25) rotate(-90)" gradientUnits="userSpaceOnUse"><stop offset="0" stop-color="#404041"/><stop offset=".02" stop-color="#565657"/><stop offset=".07" stop-color="#7b7b7b"/><stop offset=".12" stop-color="#9b9b9b"/><stop offset=".18" stop-color="#b6b6b6"/><stop offset=".24" stop-color="#ccc"/><stop offset=".32" stop-color="#ddd"/><stop offset=".41" stop-color="#e9e9e9"/><stop offset=".54" stop-color="#f0f0f0"/><stop offset=".91" stop-color="#f2f2f2"/></linearGradient><linearGradient id="linear-gradient-3" y1="8858.36" y2="9050.78" xlink:href="#linear-gradient-2"/><linearGradient id="linear-gradient-4" y1="9096.39" y2="9288.81" xlink:href="#linear-gradient-2"/><linearGradient id="linear-gradient-5" x1="14066.92" y1="9017.05" x2="14058.11" y2="9209.47" xlink:href="#linear-gradient-2"/><linearGradient id="linear-gradient-6" x1="14066.92" x2="14058.11" xlink:href="#linear-gradient-2"/><linearGradient id="linear-gradient-7" x1="14066.92" y1="8858.36" x2="14058.11" y2="9050.78" xlink:href="#linear-gradient-2"/><linearGradient id="linear-gradient-8" x1="14066.92" y1="9096.39" x2="14058.11" y2="9288.81" xlink:href="#linear-gradient-2"/><linearGradient id="linear-gradient-9" x1="14066.92" y1="8779.01" x2="14058.11" y2="8971.43" xlink:href="#linear-gradient-2"/><linearGradient id="linear-gradient-10" x1="13929.26" y1="9017.05" x2="13920.45" y2="9209.47" xlink:href="#linear-gradient"/><linearGradient id="linear-gradient-11" x1="14013.45" y1="8794.66" x2="13868.89" y2="8943.01" gradientTransform="translate(-8010.92 14406.25) rotate(-90)" gradientUnits="userSpaceOnUse"><stop offset="0" stop-color="#404041"/><stop offset=".05" stop-color="#5e5e5f"/><stop offset=".11" stop-color="#808081"/><stop offset=".19" stop-color="#9d9d9e"/><stop offset=".27" stop-color="#b5b5b6"/><stop offset=".36" stop-color="#c7c7c8"/><stop offset=".47" stop-color="#d4d4d5"/><stop offset=".61" stop-color="#dbdbdc"/><stop offset=".92" stop-color="#dededf"/></linearGradient><linearGradient id="linear-gradient-12" x1="14013.45" y1="8715.32" x2="13868.89" y2="8863.66" xlink:href="#linear-gradient-11"/><linearGradient id="linear-gradient-13" x1="13996.59" y1="8644.21" x2="14062.73" y2="8728.3" gradientTransform="translate(-8010.92 14406.25) rotate(-90)" gradientUnits="userSpaceOnUse"><stop offset="0" stop-color="#404041"/><stop offset="0" stop-color="#444445"/><stop offset=".06" stop-color="#6b6a6b"/><stop offset=".12" stop-color="#8d8c8d"/><stop offset=".19" stop-color="#a9a9a9"/><stop offset=".26" stop-color="#c1c0c0"/><stop offset=".35" stop-color="#d3d2d2"/><stop offset=".45" stop-color="#dfdede"/><stop offset=".59" stop-color="#e6e5e5"/><stop offset=".9" stop-color="#e9e8e8"/></linearGradient><linearGradient id="linear-gradient-14" x1="13929.26" y1="8620.34" x2="13920.45" y2="8812.76" xlink:href="#linear-gradient-2"/><linearGradient id="linear-gradient-15" x1="14342.24" y1="9096.39" x2="14333.44" y2="9288.81" xlink:href="#linear-gradient"/><linearGradient id="linear-gradient-16" x1="14204.58" y1="9096.39" x2="14195.78" y2="9288.81" xlink:href="#linear-gradient-2"/><linearGradient id="linear-gradient-17" x1="14204.58" y1="9017.05" x2="14195.78" y2="9209.47" xlink:href="#linear-gradient-2"/><linearGradient id="linear-gradient-18" x1="14204.58" x2="14195.78" xlink:href="#linear-gradient-2"/><linearGradient id="linear-gradient-19" x1="14479.9" x2="14471.1" xlink:href="#linear-gradient-2"/><linearGradient id="linear-gradient-20" x1="14479.9" y1="8858.36" x2="14471.1" y2="9050.78" xlink:href="#linear-gradient-2"/><linearGradient id="linear-gradient-21" x1="14271.92" y1="9040.94" x2="14338.05" y2="9125.03" xlink:href="#linear-gradient-13"/><linearGradient id="linear-gradient-22" x1="14204.58" y1="8779.01" x2="14195.78" y2="8971.43" xlink:href="#linear-gradient-2"/><linearGradient id="linear-gradient-23" x1="14479.9" y1="9096.39" x2="14471.1" y2="9288.81" xlink:href="#linear-gradient-2"/><linearGradient id="linear-gradient-24" x1="14204.58" y1="8858.36" x2="14195.78" y2="9050.78" xlink:href="#linear-gradient-2"/><linearGradient id="linear-gradient-25" x1="14271.92" y1="8961.6" x2="14338.05" y2="9045.68" xlink:href="#linear-gradient-13"/><linearGradient id="linear-gradient-26" x1="14342.24" y1="8858.36" x2="14333.44" y2="9050.78" xlink:href="#linear-gradient"/><linearGradient id="linear-gradient-27" x1="14342.24" y1="8779.01" x2="14333.44" y2="8971.43" xlink:href="#linear-gradient-2"/><linearGradient id="linear-gradient-28" x1="14479.9" y1="9017.05" x2="14471.1" y2="9209.47" xlink:href="#linear-gradient"/><linearGradient id="linear-gradient-29" x1="14564.1" x2="14419.53" y2="8943.01" xlink:href="#linear-gradient-11"/><linearGradient id="linear-gradient-30" x1="13929.26" y1="8065.32" x2="13920.45" y2="8257.74" xlink:href="#linear-gradient-2"/><linearGradient id="linear-gradient-31" x1="14066.92" y1="8144.66" x2="14058.11" y2="8337.08" xlink:href="#linear-gradient-2"/><linearGradient id="linear-gradient-32" x1="14066.92" y1="8065.32" x2="14058.11" y2="8257.74" xlink:href="#linear-gradient-2"/><linearGradient id="linear-gradient-33" x1="13929.26" y1="8144.66" x2="13920.45" y2="8337.08" xlink:href="#linear-gradient"/><linearGradient id="linear-gradient-34" x1="14204.58" y1="8144.66" x2="14195.78" y2="8337.08" xlink:href="#linear-gradient-2"/><linearGradient id="linear-gradient-35" x1="14204.58" y1="8065.32" x2="14195.78" y2="8257.74" xlink:href="#linear-gradient-2"/><linearGradient id="linear-gradient-36" x1="14479.9" y1="8065.32" x2="14471.1" y2="8257.74" xlink:href="#linear-gradient-2"/><linearGradient id="linear-gradient-37" x1="14271.92" y1="8168.56" x2="14338.05" y2="8252.64" xlink:href="#linear-gradient-13"/><linearGradient id="linear-gradient-38" x1="14271.92" y1="8089.21" x2="14338.05" y2="8173.3" xlink:href="#linear-gradient-13"/><linearGradient id="linear-gradient-39" x1="14479.9" y1="8144.66" x2="14471.1" y2="8337.08" xlink:href="#linear-gradient"/><linearGradient id="linear-gradient-40" x1="14564.1" y1="8715.32" x2="14419.53" y2="8863.66" xlink:href="#linear-gradient-11"/><linearGradient id="linear-gradient-41" x1="14426.44" y1="8715.32" x2="14281.87" y2="8863.66" xlink:href="#linear-gradient-11"/><linearGradient id="linear-gradient-42" x1="14204.58" y1="8699.66" x2="14195.78" y2="8892.09" xlink:href="#linear-gradient-2"/><linearGradient id="linear-gradient-43" x1="14342.24" y1="8620.32" x2="14333.44" y2="8812.74" xlink:href="#linear-gradient-2"/><linearGradient id="linear-gradient-44" x1="14479.9" y1="8620.32" x2="14471.1" y2="8812.74" xlink:href="#linear-gradient-2"/><linearGradient id="linear-gradient-45" x1="14288.77" y1="8635.97" x2="14144.21" y2="8784.32" xlink:href="#linear-gradient-11"/><linearGradient id="linear-gradient-46" x1="14066.92" y1="8303.36" x2="14058.11" y2="8495.78" xlink:href="#linear-gradient"/><linearGradient id="linear-gradient-47" x1="13929.26" y1="8541.39" x2="13920.45" y2="8733.81" xlink:href="#linear-gradient-2"/><linearGradient id="linear-gradient-48" x1="13929.26" y1="8462.05" x2="13920.45" y2="8654.47" xlink:href="#linear-gradient-2"/><linearGradient id="linear-gradient-49" x1="14066.92" y1="8541.39" x2="14058.11" y2="8733.81" xlink:href="#linear-gradient-2"/><linearGradient id="linear-gradient-50" x1="14066.92" y1="8462.05" x2="14058.11" y2="8654.47" xlink:href="#linear-gradient-2"/><linearGradient id="linear-gradient-51" x1="14066.92" y1="8382.7" x2="14058.11" y2="8575.12" xlink:href="#linear-gradient-2"/><linearGradient id="linear-gradient-52" y1="8398.36" y2="8546.7" xlink:href="#linear-gradient-11"/><linearGradient id="linear-gradient-53" x1="14013.45" y1="8319.01" x2="13868.89" y2="8467.35" xlink:href="#linear-gradient-11"/><linearGradient id="linear-gradient-54" x1="13996.59" y1="8247.91" x2="14062.73" y2="8331.99" xlink:href="#linear-gradient-13"/><linearGradient id="linear-gradient-55" x1="13929.26" y1="8224.03" x2="13920.45" y2="8416.45" xlink:href="#linear-gradient-2"/><linearGradient id="linear-gradient-56" x1="14204.58" y1="8541.39" x2="14195.78" y2="8733.81" xlink:href="#linear-gradient-2"/><linearGradient id="linear-gradient-57" x1="14479.9" y1="8541.39" x2="14471.1" y2="8733.81" xlink:href="#linear-gradient-2"/><linearGradient id="linear-gradient-58" x1="14479.9" y1="8462.05" x2="14471.1" y2="8654.47" xlink:href="#linear-gradient-2"/><linearGradient id="linear-gradient-59" x1="14204.58" y1="8382.7" x2="14195.78" y2="8575.12" xlink:href="#linear-gradient-2"/><linearGradient id="linear-gradient-60" x1="14204.58" y1="8462.05" x2="14195.78" y2="8654.47" xlink:href="#linear-gradient-2"/><linearGradient id="linear-gradient-61" x1="14271.92" y1="8565.29" x2="14338.05" y2="8649.37" xlink:href="#linear-gradient-13"/><linearGradient id="linear-gradient-62" x1="14342.24" y1="8462.05" x2="14333.44" y2="8654.47" xlink:href="#linear-gradient"/><linearGradient id="linear-gradient-63" x1="14342.24" y1="8382.7" x2="14333.44" y2="8575.12" xlink:href="#linear-gradient-2"/><linearGradient id="linear-gradient-64" x1="14564.1" y1="8398.36" x2="14419.53" y2="8546.7" xlink:href="#linear-gradient-11"/><linearGradient id="linear-gradient-65" x1="14564.1" y1="8319.01" x2="14419.53" y2="8467.35" xlink:href="#linear-gradient-11"/><linearGradient id="linear-gradient-66" x1="14426.44" y1="8319.01" x2="14281.87" y2="8467.35" xlink:href="#linear-gradient-11"/><linearGradient id="linear-gradient-67" x1="14204.58" y1="8303.36" x2="14195.78" y2="8495.78" xlink:href="#linear-gradient-2"/><linearGradient id="linear-gradient-68" x1="14342.24" y1="8224.01" x2="14333.44" y2="8416.43" xlink:href="#linear-gradient-2"/><linearGradient id="linear-gradient-69" x1="14479.9" y1="8224.01" x2="14471.1" y2="8416.43" xlink:href="#linear-gradient-2"/><linearGradient id="linear-gradient-70" x1="14288.77" y1="8239.66" x2="14144.21" y2="8388.01" xlink:href="#linear-gradient-11"/></defs><g class="cls-72"><g id="_層_1"><g class="cls-37"><polygon class="cls-4" points="835.5 275.4 756.15 275.4 716.48 344.24 756.15 413.07 835.5 413.07 875.17 344.24 835.5 275.4"/><polygon class="cls-3" points="1073.53 413.07 994.19 413.07 954.51 481.9 994.19 550.73 1073.53 550.73 1113.21 481.9 1073.53 413.07"/><polygon class="cls-34" points="994.19 413.07 914.84 413.07 875.17 481.9 914.84 550.73 994.19 550.73 1033.86 481.9 994.19 413.07"/><polygon class="cls-2" points="1232.22 413.07 1152.88 413.07 1113.21 481.9 1152.88 550.73 1232.22 550.73 1271.9 481.9 1232.22 413.07"/><polygon class="cls-36" points="1152.88 275.4 1073.53 275.4 1033.86 344.24 1073.53 413.07 1152.88 413.07 1192.55 344.24 1152.88 275.4"/><polygon class="cls-35" points="1073.53 275.4 994.19 275.4 954.51 344.24 994.19 413.07 1073.53 413.07 1113.21 344.24 1073.53 275.4"/><polygon class="cls-1" points="994.19 275.4 914.84 275.4 875.17 344.24 914.84 413.07 994.19 413.07 1033.86 344.24 994.19 275.4"/><polygon class="cls-32" points="1232.22 275.4 1152.88 275.4 1113.21 344.24 1152.88 413.07 1232.22 413.07 1271.9 344.24 1232.22 275.4"/><polygon class="cls-33" points="914.84 275.4 835.5 275.4 795.82 344.24 835.5 413.07 914.84 413.07 954.51 344.24 914.84 275.4"/><polygon class="cls-61" points="1152.88 413.07 1073.53 413.07 1033.86 481.9 1073.53 550.73 1152.88 550.73 1192.55 481.9 1152.88 413.07"/><polygon class="cls-25" points="914.84 413.07 835.5 413.07 795.82 481.9 835.5 550.73 914.84 550.73 954.51 481.9 914.84 413.07"/><polygon class="cls-60" points="835.5 413.07 756.15 413.07 716.48 481.9 756.15 550.73 835.5 550.73 875.17 481.9 835.5 413.07"/><polygon class="cls-24" points="756.15 275.4 676.8 275.4 637.13 344.24 676.8 413.07 756.15 413.07 795.82 344.24 756.15 275.4"/><polygon class="cls-55" points="756.17 413.07 676.82 413.07 637.15 481.9 676.82 550.73 756.17 550.73 795.84 481.9 756.17 413.07"/><polygon class="cls-57" points="1232.22 .08 1152.88 .08 1113.21 68.91 1152.88 137.74 1232.22 137.74 1271.9 68.91 1232.22 .08"/><polygon class="cls-58" points="1232.22 137.74 1152.88 137.74 1113.21 206.57 1152.88 275.4 1232.22 275.4 1271.9 206.57 1232.22 137.74"/><polygon class="cls-59" points="1152.88 137.74 1073.53 137.74 1033.86 206.57 1073.53 275.4 1152.88 275.4 1192.55 206.57 1152.88 137.74"/><polygon class="cls-23" points="1073.53 137.74 994.19 137.74 954.51 206.57 994.19 275.4 1073.53 275.4 1113.21 206.57 1073.53 137.74"/><polygon class="cls-19" points="1073.53 -137.58 994.19 -137.58 954.51 -68.75 994.19 .08 1073.53 .08 1113.21 -68.75 1073.53 -137.58"/><polygon class="cls-56" points="994.19 -137.58 914.84 -137.58 875.17 -68.75 914.84 .08 994.19 .08 1033.86 -68.75 994.19 -137.58"/><polygon class="cls-20" points="1152.88 .08 1073.53 .08 1033.86 68.91 1073.53 137.74 1152.88 137.74 1192.55 68.91 1152.88 .08"/><polygon class="cls-22" points="914.84 137.74 835.5 137.74 795.82 206.57 835.5 275.4 914.84 275.4 954.51 206.57 914.84 137.74"/><polygon class="cls-21" points="1232.22 -137.58 1152.88 -137.58 1113.21 -68.75 1152.88 .08 1232.22 .08 1271.9 -68.75 1232.22 -137.58"/><polygon class="cls-63" points="994.19 137.74 914.84 137.74 875.17 206.57 914.84 275.4 994.19 275.4 1033.86 206.57 994.19 137.74"/><polygon class="cls-67" points="1073.53 .08 994.19 .08 954.51 68.91 994.19 137.74 1073.53 137.74 1113.21 68.91 1073.53 .08"/><polygon class="cls-31" points="994.19 .08 914.84 .08 875.17 68.91 914.84 137.74 994.19 137.74 1033.86 68.91 994.19 .08"/><polygon class="cls-62" points="914.84 .08 835.5 .08 795.82 68.91 835.5 137.74 914.84 137.74 954.51 68.91 914.84 .08"/><polygon class="cls-68" points="1152.88 -137.58 1073.53 -137.58 1033.86 -68.75 1073.53 .08 1152.88 .08 1192.55 -68.75 1152.88 -137.58"/><polygon class="cls-29" points="914.84 -137.58 835.5 -137.58 795.82 -68.75 835.5 .08 914.84 .08 954.51 -68.75 914.84 -137.58"/><polygon class="cls-30" points="201.15 413.07 121.8 413.07 82.13 481.9 121.8 550.73 201.15 550.73 240.82 481.9 201.15 413.07"/><polygon class="cls-71" points="280.49 275.4 201.15 275.4 161.47 344.24 201.15 413.07 280.49 413.07 320.17 344.24 280.49 275.4"/><polygon class="cls-70" points="201.15 275.4 121.8 275.4 82.13 344.24 121.8 413.07 201.15 413.07 240.82 344.24 201.15 275.4"/><polygon class="cls-69" points="280.49 413.07 201.15 413.07 161.47 481.9 201.15 550.73 280.49 550.73 320.17 481.9 280.49 413.07"/><polygon class="cls-65" points="280.49 137.74 201.15 137.74 161.47 206.57 201.15 275.4 280.49 275.4 320.17 206.57 280.49 137.74"/><polygon class="cls-27" points="201.15 137.74 121.8 137.74 82.13 206.57 121.8 275.4 201.15 275.4 240.82 206.57 201.15 137.74"/><polygon class="cls-28" points="201.15 -137.58 121.8 -137.58 82.13 -68.75 121.8 .08 201.15 .08 240.82 -68.75 201.15 -137.58"/><polygon class="cls-26" points="280.49 .08 201.15 .08 161.47 68.91 201.15 137.74 280.49 137.74 320.17 68.91 280.49 .08"/><polygon class="cls-64" points="201.15 .08 121.8 .08 82.13 68.91 121.8 137.74 201.15 137.74 240.82 68.91 201.15 .08"/><polygon class="cls-66" points="280.49 -137.58 201.15 -137.58 161.47 -68.75 201.15 .08 280.49 .08 320.17 -68.75 280.49 -137.58"/><polygon class="cls-50" points="835.5 -137.58 756.15 -137.58 716.48 -68.75 756.15 .08 835.5 .08 875.17 -68.75 835.5 -137.58"/><polygon class="cls-49" points="835.5 .08 756.15 .08 716.48 68.91 756.15 137.74 835.5 137.74 875.17 68.91 835.5 .08"/><polygon class="cls-5" points="835.5 137.74 756.15 137.74 716.48 206.57 756.15 275.4 835.5 275.4 875.17 206.57 835.5 137.74"/><polygon class="cls-6" points="756.15 .08 676.8 .08 637.13 68.91 676.8 137.74 756.15 137.74 795.82 68.91 756.15 .08"/><polygon class="cls-52" points="756.15 -137.58 676.8 -137.58 637.13 -68.75 676.8 .08 756.15 .08 795.82 -68.75 756.15 -137.58"/><polygon class="cls-51" points="756.15 137.74 676.8 137.74 637.13 206.57 676.8 275.4 756.15 275.4 795.82 206.57 756.15 137.74"/><polygon class="cls-7" points="439.19 275.4 359.84 275.4 320.17 344.24 359.84 413.07 439.19 413.07 478.86 344.24 439.19 275.4"/><polygon class="cls-8" points="677.22 413.07 597.88 413.07 558.21 481.9 597.88 550.73 677.22 550.73 716.9 481.9 677.22 413.07"/><polygon class="cls-54" points="597.88 413.07 518.53 413.07 478.86 481.9 518.53 550.73 597.88 550.73 637.55 481.9 597.88 413.07"/><polygon class="cls-53" points="677.22 275.4 597.88 275.4 558.21 344.24 597.88 413.07 677.22 413.07 716.9 344.24 677.22 275.4"/><polygon class="cls-14" points="597.88 275.4 518.53 275.4 478.86 344.24 518.53 413.07 597.88 413.07 637.55 344.24 597.88 275.4"/><polygon class="cls-41" points="518.53 275.4 439.19 275.4 399.51 344.24 439.19 413.07 518.53 413.07 558.21 344.24 518.53 275.4"/><polygon class="cls-13" points="518.53 413.07 439.19 413.07 399.51 481.9 439.19 550.73 518.53 550.73 558.21 481.9 518.53 413.07"/><polygon class="cls-40" points="439.19 413.07 359.84 413.07 320.17 481.9 359.84 550.73 439.19 550.73 478.86 481.9 439.19 413.07"/><polygon class="cls-16" points="359.84 275.4 280.5 275.4 240.82 344.24 280.5 413.07 359.84 413.07 399.51 344.24 359.84 275.4"/><polygon class="cls-39" points="359.86 413.07 280.51 413.07 240.84 481.9 280.51 550.73 359.86 550.73 399.53 481.9 359.86 413.07"/><polygon class="cls-15" points="677.22 137.74 597.88 137.74 558.21 206.57 597.88 275.4 677.22 275.4 716.9 206.57 677.22 137.74"/><polygon class="cls-18" points="677.22 -137.58 597.88 -137.58 558.21 -68.75 597.88 .08 677.22 .08 716.9 -68.75 677.22 -137.58"/><polygon class="cls-38" points="597.88 -137.58 518.53 -137.58 478.86 -68.75 518.53 .08 597.88 .08 637.55 -68.75 597.88 -137.58"/><polygon class="cls-17" points="518.53 137.74 439.19 137.74 399.51 206.57 439.19 275.4 518.53 275.4 558.21 206.57 518.53 137.74"/><polygon class="cls-47" points="597.88 137.74 518.53 137.74 478.86 206.57 518.53 275.4 597.88 275.4 637.55 206.57 597.88 137.74"/><polygon class="cls-48" points="677.22 .08 597.88 .08 558.21 68.91 597.88 137.74 677.22 137.74 716.9 68.91 677.22 .08"/><polygon class="cls-12" points="597.88 .08 518.53 .08 478.86 68.91 518.53 137.74 597.88 137.74 637.55 68.91 597.88 .08"/><polygon class="cls-44" points="518.53 .08 439.19 .08 399.51 68.91 439.19 137.74 518.53 137.74 558.21 68.91 518.53 .08"/><polygon class="cls-9" points="518.53 -137.58 439.19 -137.58 399.51 -68.75 439.19 .08 518.53 .08 558.21 -68.75 518.53 -137.58"/><polygon class="cls-46" points="439.19 -137.58 359.84 -137.58 320.17 -68.75 359.84 .08 439.19 .08 478.86 -68.75 439.19 -137.58"/><polygon class="cls-45" points="439.19 .08 359.84 .08 320.17 68.91 359.84 137.74 439.19 137.74 478.86 68.91 439.19 .08"/><polygon class="cls-10" points="439.19 137.74 359.84 137.74 320.17 206.57 359.84 275.4 439.19 275.4 478.86 206.57 439.19 137.74"/><polygon class="cls-11" points="359.84 .08 280.5 .08 240.82 68.91 280.5 137.74 359.84 137.74 399.51 68.91 359.84 .08"/><polygon class="cls-43" points="359.84 -137.58 280.5 -137.58 240.82 -68.75 280.5 .08 359.84 .08 399.51 -68.75 359.84 -137.58"/><polygon class="cls-42" points="359.84 137.74 280.5 137.74 240.82 206.57 280.5 275.4 359.84 275.4 399.51 206.57 359.84 137.74"/></g></g></g></svg>