<?xml version="1.0" encoding="UTF-8"?><svg xmlns="http://www.w3.org/2000/svg" xmlns:xlink="http://www.w3.org/1999/xlink" viewBox="0 0 1200 680"><defs><style>.cls-1{fill:url(#linear-gradient-7);}.cls-1,.cls-2,.cls-3,.cls-4,.cls-5,.cls-6,.cls-7,.cls-8,.cls-9,.cls-10,.cls-11,.cls-12,.cls-13,.cls-14,.cls-15,.cls-16,.cls-17,.cls-18,.cls-19,.cls-20,.cls-21,.cls-22,.cls-23,.cls-24,.cls-25,.cls-26,.cls-27,.cls-28,.cls-29,.cls-30,.cls-31{mix-blend-mode:multiply;}.cls-2{fill:url(#linear-gradient-4);}.cls-3{fill:url(#linear-gradient-2);}.cls-32{fill:url(#linear-gradient-8);}.cls-33{fill:url(#linear-gradient-9);}.cls-34{fill:url(#linear-gradient-3);}.cls-35{fill:url(#linear-gradient-6);}.cls-36{fill:url(#linear-gradient-5);}.cls-37{opacity:.55;}.cls-4{fill:url(#linear-gradient);}.cls-38{fill:url(#linear-gradient-58);}.cls-39{fill:url(#linear-gradient-55);}.cls-40{fill:url(#linear-gradient-53);}.cls-41{fill:url(#linear-gradient-51);}.cls-42{fill:url(#linear-gradient-70);}.cls-43{fill:url(#linear-gradient-69);}.cls-44{fill:url(#linear-gradient-63);}.cls-45{fill:url(#linear-gradient-66);}.cls-46{fill:url(#linear-gradient-65);}.cls-47{fill:url(#linear-gradient-60);}.cls-48{fill:url(#linear-gradient-61);}.cls-49{fill:url(#linear-gradient-41);}.cls-50{fill:url(#linear-gradient-40);}.cls-51{fill:url(#linear-gradient-45);}.cls-52{fill:url(#linear-gradient-44);}.cls-53{fill:url(#linear-gradient-49);}.cls-54{fill:url(#linear-gradient-48);}.cls-55{fill:url(#linear-gradient-14);}.cls-56{fill:url(#linear-gradient-20);}.cls-57{fill:url(#linear-gradient-15);}.cls-58{fill:url(#linear-gradient-16);}.cls-59{fill:url(#linear-gradient-17);}.cls-60{fill:url(#linear-gradient-12);}.cls-61{fill:url(#linear-gradient-10);}.cls-62{fill:url(#linear-gradient-27);}.cls-63{fill:url(#linear-gradient-24);}.cls-64{fill:url(#linear-gradient-38);}.cls-65{fill:url(#linear-gradient-34);}.cls-66{fill:url(#linear-gradient-39);}.cls-67{fill:url(#linear-gradient-25);}.cls-68{fill:url(#linear-gradient-28);}.cls-69{fill:url(#linear-gradient-33);}.cls-70{fill:url(#linear-gradient-32);}.cls-71{fill:url(#linear-gradient-31);}.cls-72{isolation:isolate;}.cls-5{fill:url(#linear-gradient-42);}.cls-6{fill:url(#linear-gradient-43);}.cls-7{fill:url(#linear-gradient-46);}.cls-8{fill:url(#linear-gradient-47);}.cls-9{fill:url(#linear-gradient-64);}.cls-10{fill:url(#linear-gradient-67);}.cls-11{fill:url(#linear-gradient-68);}.cls-12{fill:url(#linear-gradient-62);}.cls-13{fill:url(#linear-gradient-52);}.cls-14{fill:url(#linear-gradient-50);}.cls-15{fill:url(#linear-gradient-56);}.cls-16{fill:url(#linear-gradient-54);}.cls-17{fill:url(#linear-gradient-59);}.cls-18{fill:url(#linear-gradient-57);}.cls-19{fill:url(#linear-gradient-19);}.cls-20{fill:url(#linear-gradient-21);}.cls-21{fill:url(#linear-gradient-23);}.cls-22{fill:url(#linear-gradient-22);}.cls-23{fill:url(#linear-gradient-18);}.cls-24{fill:url(#linear-gradient-13);}.cls-25{fill:url(#linear-gradient-11);}.cls-26{fill:url(#linear-gradient-37);}.cls-27{fill:url(#linear-gradient-35);}.cls-28{fill:url(#linear-gradient-36);}.cls-29{fill:url(#linear-gradient-29);}.cls-30{fill:url(#linear-gradient-30);}.cls-31{fill:url(#linear-gradient-26);}</style><linearGradient id="linear-gradient" x1="13025.98" y1="7795.78" x2="13017.18" y2="7988.2" gradientTransform="translate(-7107.04 13502.37) rotate(-90)" gradientUnits="userSpaceOnUse"><stop offset="0" stop-color="#404041"/><stop offset="0" stop-color="#444445"/><stop offset=".05" stop-color="#696969"/><stop offset=".11" stop-color="#89898a"/><stop offset=".16" stop-color="#a4a4a4"/><stop offset=".23" stop-color="#bababa"/><stop offset=".31" stop-color="#cbcbcb"/><stop offset=".4" stop-color="#d7d7d7"/><stop offset=".54" stop-color="#dedede"/><stop offset=".91" stop-color="#e0e0e0"/></linearGradient><linearGradient id="linear-gradient-2" x1="12888.32" y1="8033.82" x2="12879.52" y2="8226.24" gradientTransform="translate(-7107.04 13502.37) rotate(-90)" gradientUnits="userSpaceOnUse"><stop offset="0" stop-color="#404041"/><stop offset=".02" stop-color="#565657"/><stop offset=".07" stop-color="#7b7b7b"/><stop offset=".12" stop-color="#9b9b9b"/><stop offset=".18" stop-color="#b6b6b6"/><stop offset=".24" stop-color="#ccc"/><stop offset=".32" stop-color="#ddd"/><stop offset=".41" stop-color="#e9e9e9"/><stop offset=".54" stop-color="#f0f0f0"/><stop offset=".91" stop-color="#f2f2f2"/></linearGradient><linearGradient id="linear-gradient-3" x1="12888.32" y1="7954.47" x2="12879.52" y2="8146.89" xlink:href="#linear-gradient-2"/><linearGradient id="linear-gradient-4" x1="12888.32" y1="8192.51" x2="12879.52" y2="8384.93" xlink:href="#linear-gradient-2"/><linearGradient id="linear-gradient-5" x1="13025.98" y1="8113.16" x2="13017.18" y2="8305.59" xlink:href="#linear-gradient-2"/><linearGradient id="linear-gradient-6" x1="13025.98" y1="8033.82" x2="13017.18" y2="8226.24" xlink:href="#linear-gradient-2"/><linearGradient id="linear-gradient-7" x1="13025.98" y1="7954.47" x2="13017.18" y2="8146.89" xlink:href="#linear-gradient-2"/><linearGradient id="linear-gradient-8" x1="13025.98" y1="8192.51" x2="13017.18" y2="8384.93" xlink:href="#linear-gradient-2"/><linearGradient id="linear-gradient-9" x1="13025.98" y1="7875.13" x2="13017.18" y2="8067.55" xlink:href="#linear-gradient-2"/><linearGradient id="linear-gradient-10" x1="12888.32" y1="8113.16" x2="12879.52" y2="8305.59" xlink:href="#linear-gradient"/><linearGradient id="linear-gradient-11" x1="12972.52" y1="7890.78" x2="12827.95" y2="8039.13" gradientTransform="translate(-7107.04 13502.37) rotate(-90)" gradientUnits="userSpaceOnUse"><stop offset="0" stop-color="#404041"/><stop offset=".05" stop-color="#5e5e5f"/><stop offset=".11" stop-color="#808081"/><stop offset=".19" stop-color="#9d9d9e"/><stop offset=".27" stop-color="#b5b5b6"/><stop offset=".36" stop-color="#c7c7c8"/><stop offset=".47" stop-color="#d4d4d5"/><stop offset=".61" stop-color="#dbdbdc"/><stop offset=".92" stop-color="#dededf"/></linearGradient><linearGradient id="linear-gradient-12" x1="12972.52" y1="7811.44" x2="12827.95" y2="7959.78" xlink:href="#linear-gradient-11"/><linearGradient id="linear-gradient-13" x1="12955.66" y1="7740.33" x2="13021.8" y2="7824.42" gradientTransform="translate(-7107.04 13502.37) rotate(-90)" gradientUnits="userSpaceOnUse"><stop offset="0" stop-color="#404041"/><stop offset="0" stop-color="#444445"/><stop offset=".06" stop-color="#6b6a6b"/><stop offset=".12" stop-color="#8d8c8d"/><stop offset=".19" stop-color="#a9a9a9"/><stop offset=".26" stop-color="#c1c0c0"/><stop offset=".35" stop-color="#d3d2d2"/><stop offset=".45" stop-color="#dfdede"/><stop offset=".59" stop-color="#e6e5e5"/><stop offset=".9" stop-color="#e9e8e8"/></linearGradient><linearGradient id="linear-gradient-14" x1="12888.32" y1="7716.45" x2="12879.52" y2="7908.88" xlink:href="#linear-gradient-2"/><linearGradient id="linear-gradient-15" x1="13301.31" y1="8192.51" x2="13292.5" y2="8384.93" xlink:href="#linear-gradient"/><linearGradient id="linear-gradient-16" x1="13163.65" y1="8192.51" x2="13154.84" y2="8384.93" xlink:href="#linear-gradient-2"/><linearGradient id="linear-gradient-17" x1="13163.65" y1="8113.16" x2="13154.84" y2="8305.59" xlink:href="#linear-gradient-2"/><linearGradient id="linear-gradient-18" x1="13163.65" y1="8033.82" x2="13154.84" y2="8226.24" xlink:href="#linear-gradient-2"/><linearGradient id="linear-gradient-19" x1="13438.97" x2="13430.17" xlink:href="#linear-gradient-2"/><linearGradient id="linear-gradient-20" x1="13438.97" y1="7954.47" x2="13430.17" y2="8146.89" xlink:href="#linear-gradient-2"/><linearGradient id="linear-gradient-21" x1="13230.99" y1="8137.06" x2="13297.12" y2="8221.15" xlink:href="#linear-gradient-13"/><linearGradient id="linear-gradient-22" x1="13163.65" y1="7875.13" x2="13154.84" y2="8067.55" xlink:href="#linear-gradient-2"/><linearGradient id="linear-gradient-23" x1="13438.97" y1="8192.51" x2="13430.17" y2="8384.93" xlink:href="#linear-gradient-2"/><linearGradient id="linear-gradient-24" x1="13163.65" y1="7954.47" x2="13154.84" y2="8146.89" xlink:href="#linear-gradient-2"/><linearGradient id="linear-gradient-25" x1="13230.99" y1="8057.71" x2="13297.12" y2="8141.8" xlink:href="#linear-gradient-13"/><linearGradient id="linear-gradient-26" x1="13301.31" y1="7954.47" x2="13292.5" y2="8146.89" xlink:href="#linear-gradient"/><linearGradient id="linear-gradient-27" x1="13301.31" y1="7875.13" x2="13292.5" y2="8067.55" xlink:href="#linear-gradient-2"/><linearGradient id="linear-gradient-28" x1="13438.97" y1="8113.16" x2="13430.17" y2="8305.59" xlink:href="#linear-gradient"/><linearGradient id="linear-gradient-29" x1="13523.16" x2="13378.6" xlink:href="#linear-gradient-11"/><linearGradient id="linear-gradient-30" x1="12888.32" y1="7161.43" x2="12879.52" y2="7353.85" xlink:href="#linear-gradient-2"/><linearGradient id="linear-gradient-31" x1="13025.98" y1="7240.78" x2="13017.18" y2="7433.2" xlink:href="#linear-gradient-2"/><linearGradient id="linear-gradient-32" x1="13025.98" y1="7161.43" x2="13017.18" y2="7353.85" xlink:href="#linear-gradient-2"/><linearGradient id="linear-gradient-33" x1="12888.32" y1="7240.78" x2="12879.52" y2="7433.2" xlink:href="#linear-gradient"/><linearGradient id="linear-gradient-34" x1="13163.65" y1="7240.78" x2="13154.84" y2="7433.2" xlink:href="#linear-gradient-2"/><linearGradient id="linear-gradient-35" x1="13163.65" y1="7161.43" x2="13154.84" y2="7353.85" xlink:href="#linear-gradient-2"/><linearGradient id="linear-gradient-36" x1="13438.97" y1="7161.43" x2="13430.17" y2="7353.85" xlink:href="#linear-gradient-2"/><linearGradient id="linear-gradient-37" x1="13230.99" y1="7264.67" x2="13297.12" y2="7348.76" xlink:href="#linear-gradient-13"/><linearGradient id="linear-gradient-38" x1="13230.99" y1="7185.33" x2="13297.12" y2="7269.41" xlink:href="#linear-gradient-13"/><linearGradient id="linear-gradient-39" x1="13438.97" y1="7240.78" x2="13430.17" y2="7433.2" xlink:href="#linear-gradient"/><linearGradient id="linear-gradient-40" x1="13523.16" y1="7811.44" x2="13378.6" y2="7959.78" xlink:href="#linear-gradient-11"/><linearGradient id="linear-gradient-41" x1="13385.5" y1="7811.44" x2="13240.94" y2="7959.78" xlink:href="#linear-gradient-11"/><linearGradient id="linear-gradient-42" x1="13163.65" y1="7795.78" x2="13154.84" y2="7988.2" xlink:href="#linear-gradient-2"/><linearGradient id="linear-gradient-43" x1="13301.31" y1="7716.43" x2="13292.5" y2="7908.86" xlink:href="#linear-gradient-2"/><linearGradient id="linear-gradient-44" x1="13438.97" y1="7716.43" x2="13430.17" y2="7908.86" xlink:href="#linear-gradient-2"/><linearGradient id="linear-gradient-45" x1="13247.84" y1="7732.09" x2="13103.28" y2="7880.43" xlink:href="#linear-gradient-11"/><linearGradient id="linear-gradient-46" x1="13025.98" y1="7399.47" x2="13017.18" y2="7591.89" xlink:href="#linear-gradient"/><linearGradient id="linear-gradient-47" x1="12888.32" y1="7637.51" x2="12879.52" y2="7829.93" xlink:href="#linear-gradient-2"/><linearGradient id="linear-gradient-48" x1="12888.32" y1="7558.16" x2="12879.52" y2="7750.59" xlink:href="#linear-gradient-2"/><linearGradient id="linear-gradient-49" x1="13025.98" y1="7637.51" x2="13017.18" y2="7829.93" xlink:href="#linear-gradient-2"/><linearGradient id="linear-gradient-50" x1="13025.98" y1="7558.16" x2="13017.18" y2="7750.59" xlink:href="#linear-gradient-2"/><linearGradient id="linear-gradient-51" x1="13025.98" y1="7478.82" x2="13017.18" y2="7671.24" xlink:href="#linear-gradient-2"/><linearGradient id="linear-gradient-52" x1="12972.52" y1="7494.47" x2="12827.95" y2="7642.82" xlink:href="#linear-gradient-11"/><linearGradient id="linear-gradient-53" x1="12972.52" y1="7415.13" x2="12827.95" y2="7563.47" xlink:href="#linear-gradient-11"/><linearGradient id="linear-gradient-54" x1="12955.66" y1="7344.02" x2="13021.8" y2="7428.11" xlink:href="#linear-gradient-13"/><linearGradient id="linear-gradient-55" x1="12888.32" y1="7320.14" x2="12879.52" y2="7512.57" xlink:href="#linear-gradient-2"/><linearGradient id="linear-gradient-56" x1="13163.65" y1="7637.51" x2="13154.84" y2="7829.93" xlink:href="#linear-gradient-2"/><linearGradient id="linear-gradient-57" x1="13438.97" y1="7637.51" x2="13430.17" y2="7829.93" xlink:href="#linear-gradient-2"/><linearGradient id="linear-gradient-58" x1="13438.97" y1="7558.16" x2="13430.17" y2="7750.59" xlink:href="#linear-gradient-2"/><linearGradient id="linear-gradient-59" x1="13163.65" y1="7478.82" x2="13154.84" y2="7671.24" xlink:href="#linear-gradient-2"/><linearGradient id="linear-gradient-60" x1="13163.65" y1="7558.16" x2="13154.84" y2="7750.59" xlink:href="#linear-gradient-2"/><linearGradient id="linear-gradient-61" x1="13230.99" y1="7661.41" x2="13297.12" y2="7745.49" xlink:href="#linear-gradient-13"/><linearGradient id="linear-gradient-62" x1="13301.31" y1="7558.16" x2="13292.5" y2="7750.59" xlink:href="#linear-gradient"/><linearGradient id="linear-gradient-63" x1="13301.31" y1="7478.82" x2="13292.5" y2="7671.24" xlink:href="#linear-gradient-2"/><linearGradient id="linear-gradient-64" x1="13523.16" y1="7494.47" x2="13378.6" y2="7642.82" xlink:href="#linear-gradient-11"/><linearGradient id="linear-gradient-65" x1="13523.16" y1="7415.13" x2="13378.6" y2="7563.47" xlink:href="#linear-gradient-11"/><linearGradient id="linear-gradient-66" x1="13385.5" y1="7415.13" x2="13240.94" y2="7563.47" xlink:href="#linear-gradient-11"/><linearGradient id="linear-gradient-67" x1="13163.65" y1="7399.47" x2="13154.84" y2="7591.89" xlink:href="#linear-gradient-2"/><linearGradient id="linear-gradient-68" x1="13301.31" y1="7320.13" x2="13292.5" y2="7512.55" xlink:href="#linear-gradient-2"/><linearGradient id="linear-gradient-69" x1="13438.97" y1="7320.13" x2="13430.17" y2="7512.55" xlink:href="#linear-gradient-2"/><linearGradient id="linear-gradient-70" x1="13247.84" y1="7335.78" x2="13103.28" y2="7484.13" xlink:href="#linear-gradient-11"/></defs><g class="cls-72"><g id="_層_2"><g class="cls-37"><polygon class="cls-4" points="835.5 412.45 756.15 412.45 716.48 481.28 756.15 550.11 835.5 550.11 875.17 481.28 835.5 412.45"/><polygon class="cls-3" points="1073.53 550.11 994.19 550.11 954.51 618.94 994.19 687.78 1073.53 687.78 1113.21 618.94 1073.53 550.11"/><polygon class="cls-34" points="994.19 550.11 914.84 550.11 875.17 618.94 914.84 687.78 994.19 687.78 1033.86 618.94 994.19 550.11"/><polygon class="cls-2" points="1232.22 550.11 1152.88 550.11 1113.21 618.94 1152.88 687.78 1232.22 687.78 1271.9 618.94 1232.22 550.11"/><polygon class="cls-36" points="1152.88 412.45 1073.53 412.45 1033.86 481.28 1073.53 550.11 1152.88 550.11 1192.55 481.28 1152.88 412.45"/><polygon class="cls-35" points="1073.53 412.45 994.19 412.45 954.51 481.28 994.19 550.11 1073.53 550.11 1113.21 481.28 1073.53 412.45"/><polygon class="cls-1" points="994.19 412.45 914.84 412.45 875.17 481.28 914.84 550.11 994.19 550.11 1033.86 481.28 994.19 412.45"/><polygon class="cls-32" points="1232.22 412.45 1152.88 412.45 1113.21 481.28 1152.88 550.11 1232.22 550.11 1271.9 481.28 1232.22 412.45"/><polygon class="cls-33" points="914.84 412.45 835.5 412.45 795.82 481.28 835.5 550.11 914.84 550.11 954.51 481.28 914.84 412.45"/><polygon class="cls-61" points="1152.88 550.11 1073.53 550.11 1033.86 618.94 1073.53 687.78 1152.88 687.78 1192.55 618.94 1152.88 550.11"/><polygon class="cls-25" points="914.84 550.11 835.5 550.11 795.82 618.94 835.5 687.78 914.84 687.78 954.51 618.94 914.84 550.11"/><polygon class="cls-60" points="835.5 550.11 756.15 550.11 716.48 618.94 756.15 687.78 835.5 687.78 875.17 618.94 835.5 550.11"/><polygon class="cls-24" points="756.15 412.45 676.8 412.45 637.13 481.28 676.8 550.11 756.15 550.11 795.82 481.28 756.15 412.45"/><polygon class="cls-55" points="756.17 550.11 676.82 550.11 637.15 618.94 676.82 687.78 756.17 687.78 795.84 618.94 756.17 550.11"/><polygon class="cls-57" points="1232.22 137.13 1152.88 137.13 1113.21 205.96 1152.88 274.79 1232.22 274.79 1271.9 205.96 1232.22 137.13"/><polygon class="cls-58" points="1232.22 274.79 1152.88 274.79 1113.21 343.62 1152.88 412.45 1232.22 412.45 1271.9 343.62 1232.22 274.79"/><polygon class="cls-59" points="1152.88 274.79 1073.53 274.79 1033.86 343.62 1073.53 412.45 1152.88 412.45 1192.55 343.62 1152.88 274.79"/><polygon class="cls-23" points="1073.53 274.79 994.19 274.79 954.51 343.62 994.19 412.45 1073.53 412.45 1113.21 343.62 1073.53 274.79"/><polygon class="cls-19" points="1073.53 -.53 994.19 -.53 954.51 68.3 994.19 137.13 1073.53 137.13 1113.21 68.3 1073.53 -.53"/><polygon class="cls-56" points="994.19 -.53 914.84 -.53 875.17 68.3 914.84 137.13 994.19 137.13 1033.86 68.3 994.19 -.53"/><polygon class="cls-20" points="1152.88 137.13 1073.53 137.13 1033.86 205.96 1073.53 274.79 1152.88 274.79 1192.55 205.96 1152.88 137.13"/><polygon class="cls-22" points="914.84 274.79 835.5 274.79 795.82 343.62 835.5 412.45 914.84 412.45 954.51 343.62 914.84 274.79"/><polygon class="cls-21" points="1232.22 -.53 1152.88 -.53 1113.21 68.3 1152.88 137.13 1232.22 137.13 1271.9 68.3 1232.22 -.53"/><polygon class="cls-63" points="994.19 274.79 914.84 274.79 875.17 343.62 914.84 412.45 994.19 412.45 1033.86 343.62 994.19 274.79"/><polygon class="cls-67" points="1073.53 137.13 994.19 137.13 954.51 205.96 994.19 274.79 1073.53 274.79 1113.21 205.96 1073.53 137.13"/><polygon class="cls-31" points="994.19 137.13 914.84 137.13 875.17 205.96 914.84 274.79 994.19 274.79 1033.86 205.96 994.19 137.13"/><polygon class="cls-62" points="914.84 137.13 835.5 137.13 795.82 205.96 835.5 274.79 914.84 274.79 954.51 205.96 914.84 137.13"/><polygon class="cls-68" points="1152.88 -.53 1073.53 -.53 1033.86 68.3 1073.53 137.13 1152.88 137.13 1192.55 68.3 1152.88 -.53"/><polygon class="cls-29" points="914.84 -.53 835.5 -.53 795.82 68.3 835.5 137.13 914.84 137.13 954.51 68.3 914.84 -.53"/><polygon class="cls-30" points="201.15 550.11 121.8 550.11 82.13 618.94 121.8 687.78 201.15 687.78 240.82 618.94 201.15 550.11"/><polygon class="cls-71" points="280.49 412.45 201.15 412.45 161.47 481.28 201.15 550.11 280.49 550.11 320.17 481.28 280.49 412.45"/><polygon class="cls-70" points="201.15 412.45 121.8 412.45 82.13 481.28 121.8 550.11 201.15 550.11 240.82 481.28 201.15 412.45"/><polygon class="cls-69" points="280.49 550.11 201.15 550.11 161.47 618.94 201.15 687.78 280.49 687.78 320.17 618.94 280.49 550.11"/><polygon class="cls-65" points="280.49 274.79 201.15 274.79 161.47 343.62 201.15 412.45 280.49 412.45 320.17 343.62 280.49 274.79"/><polygon class="cls-27" points="201.15 274.79 121.8 274.79 82.13 343.62 121.8 412.45 201.15 412.45 240.82 343.62 201.15 274.79"/><polygon class="cls-28" points="201.15 -.53 121.8 -.53 82.13 68.3 121.8 137.13 201.15 137.13 240.82 68.3 201.15 -.53"/><polygon class="cls-26" points="280.49 137.13 201.15 137.13 161.47 205.96 201.15 274.79 280.49 274.79 320.17 205.96 280.49 137.13"/><polygon class="cls-64" points="201.15 137.13 121.8 137.13 82.13 205.96 121.8 274.79 201.15 274.79 240.82 205.96 201.15 137.13"/><polygon class="cls-66" points="280.49 -.53 201.15 -.53 161.47 68.3 201.15 137.13 280.49 137.13 320.17 68.3 280.49 -.53"/><polygon class="cls-50" points="835.5 -.53 756.15 -.53 716.48 68.3 756.15 137.13 835.5 137.13 875.17 68.3 835.5 -.53"/><polygon class="cls-49" points="835.5 137.13 756.15 137.13 716.48 205.96 756.15 274.79 835.5 274.79 875.17 205.96 835.5 137.13"/><polygon class="cls-5" points="835.5 274.79 756.15 274.79 716.48 343.62 756.15 412.45 835.5 412.45 875.17 343.62 835.5 274.79"/><polygon class="cls-6" points="756.15 137.13 676.8 137.13 637.13 205.96 676.8 274.79 756.15 274.79 795.82 205.96 756.15 137.13"/><polygon class="cls-52" points="756.15 -.53 676.8 -.53 637.13 68.3 676.8 137.13 756.15 137.13 795.82 68.3 756.15 -.53"/><polygon class="cls-51" points="756.15 274.79 676.8 274.79 637.13 343.62 676.8 412.45 756.15 412.45 795.82 343.62 756.15 274.79"/><polygon class="cls-7" points="439.19 412.45 359.84 412.45 320.17 481.28 359.84 550.11 439.19 550.11 478.86 481.28 439.19 412.45"/><polygon class="cls-8" points="677.22 550.11 597.88 550.11 558.21 618.94 597.88 687.78 677.22 687.78 716.9 618.94 677.22 550.11"/><polygon class="cls-54" points="597.88 550.11 518.53 550.11 478.86 618.94 518.53 687.78 597.88 687.78 637.55 618.94 597.88 550.11"/><polygon class="cls-53" points="677.22 412.45 597.88 412.45 558.21 481.28 597.88 550.11 677.22 550.11 716.9 481.28 677.22 412.45"/><polygon class="cls-14" points="597.88 412.45 518.53 412.45 478.86 481.28 518.53 550.11 597.88 550.11 637.55 481.28 597.88 412.45"/><polygon class="cls-41" points="518.53 412.45 439.19 412.45 399.51 481.28 439.19 550.11 518.53 550.11 558.21 481.28 518.53 412.45"/><polygon class="cls-13" points="518.53 550.11 439.19 550.11 399.51 618.94 439.19 687.78 518.53 687.78 558.21 618.94 518.53 550.11"/><polygon class="cls-40" points="439.19 550.11 359.84 550.11 320.17 618.94 359.84 687.78 439.19 687.78 478.86 618.94 439.19 550.11"/><polygon class="cls-16" points="359.84 412.45 280.5 412.45 240.82 481.28 280.5 550.11 359.84 550.11 399.51 481.28 359.84 412.45"/><polygon class="cls-39" points="359.86 550.11 280.51 550.11 240.84 618.94 280.51 687.78 359.86 687.78 399.53 618.94 359.86 550.11"/><polygon class="cls-15" points="677.22 274.79 597.88 274.79 558.21 343.62 597.88 412.45 677.22 412.45 716.9 343.62 677.22 274.79"/><polygon class="cls-18" points="677.22 -.53 597.88 -.53 558.21 68.3 597.88 137.13 677.22 137.13 716.9 68.3 677.22 -.53"/><polygon class="cls-38" points="597.88 -.53 518.53 -.53 478.86 68.3 518.53 137.13 597.88 137.13 637.55 68.3 597.88 -.53"/><polygon class="cls-17" points="518.53 274.79 439.19 274.79 399.51 343.62 439.19 412.45 518.53 412.45 558.21 343.62 518.53 274.79"/><polygon class="cls-47" points="597.88 274.79 518.53 274.79 478.86 343.62 518.53 412.45 597.88 412.45 637.55 343.62 597.88 274.79"/><polygon class="cls-48" points="677.22 137.13 597.88 137.13 558.21 205.96 597.88 274.79 677.22 274.79 716.9 205.96 677.22 137.13"/><polygon class="cls-12" points="597.88 137.13 518.53 137.13 478.86 205.96 518.53 274.79 597.88 274.79 637.55 205.96 597.88 137.13"/><polygon class="cls-44" points="518.53 137.13 439.19 137.13 399.51 205.96 439.19 274.79 518.53 274.79 558.21 205.96 518.53 137.13"/><polygon class="cls-9" points="518.53 -.53 439.19 -.53 399.51 68.3 439.19 137.13 518.53 137.13 558.21 68.3 518.53 -.53"/><polygon class="cls-46" points="439.19 -.53 359.84 -.53 320.17 68.3 359.84 137.13 439.19 137.13 478.86 68.3 439.19 -.53"/><polygon class="cls-45" points="439.19 137.13 359.84 137.13 320.17 205.96 359.84 274.79 439.19 274.79 478.86 205.96 439.19 137.13"/><polygon class="cls-10" points="439.19 274.79 359.84 274.79 320.17 343.62 359.84 412.45 439.19 412.45 478.86 343.62 439.19 274.79"/><polygon class="cls-11" points="359.84 137.13 280.5 137.13 240.82 205.96 280.5 274.79 359.84 274.79 399.51 205.96 359.84 137.13"/><polygon class="cls-43" points="359.84 -.53 280.5 -.53 240.82 68.3 280.5 137.13 359.84 137.13 399.51 68.3 359.84 -.53"/><polygon class="cls-42" points="359.84 274.79 280.5 274.79 240.82 343.62 280.5 412.45 359.84 412.45 399.51 343.62 359.84 274.79"/></g></g></g></svg>