<?xml version="1.0" encoding="utf-8"?>
<!-- Generator: Adobe Illustrator 26.3.1, SVG Export Plug-In . SVG Version: 6.00 Build 0)  -->
<svg version="1.1" id="US_x5F_UK" xmlns="http://www.w3.org/2000/svg" xmlns:xlink="http://www.w3.org/1999/xlink" x="0px" y="0px"
	 viewBox="0 0 150 38" style="enable-background:new 0 0 150 38;" xml:space="preserve">
<style type="text/css">
	.st0{fill-rule:evenodd;clip-rule:evenodd;fill:#FFFFFF;stroke:#9AA0A6;stroke-width:0.56;}
	.st1{fill-rule:evenodd;clip-rule:evenodd;fill:url(#XMLID_00000096057748852761500340000001758704497628735142_);}
	.st2{fill:none;}
	.st3{fill:#FFFFFF;}
</style>
<g id="EN_Google_Podcasts_Badge">
	<g id="Rectangle-Solid">
		<path id="Rectangle" class="st0" d="M9.2,0.3h131.5c4.9,0,9,4,9,9v19.5c0,4.9-4,9-9,9H9.2c-4.9,0-9-4-9-9V9.2
			C0.3,4.3,4.3,0.3,9.2,0.3z"/>
	</g>
	<g>
		<g id="XMLID_417_">
			<g>
				<path d="M38.4,14.4h-3.5V8.8h0.9v4.8h2.6V14.4z"/>
				<path d="M39.4,9c0-0.3,0.2-0.5,0.5-0.5c0.3,0,0.5,0.2,0.5,0.5c0,0.3-0.2,0.5-0.5,0.5C39.6,9.5,39.4,9.3,39.4,9z M39.5,10.2h0.8
					v4.2h-0.8V10.2z"/>
				<path d="M43.2,10.1c0.9,0,1.6,0.4,1.6,1.2H44c-0.1-0.3-0.4-0.5-0.8-0.5c-0.5,0-0.8,0.2-0.8,0.5c0,0.3,0.2,0.4,0.7,0.5l0.7,0.2
					c0.8,0.2,1.2,0.5,1.2,1.1c0,0.8-0.7,1.3-1.7,1.3c-1,0-1.6-0.5-1.7-1.2h0.8c0.1,0.3,0.4,0.5,0.9,0.5c0.5,0,0.9-0.2,0.9-0.6
					c0-0.3-0.2-0.4-0.6-0.5l-0.7-0.2c-0.8-0.2-1.2-0.5-1.2-1.2C41.6,10.6,42.2,10.1,43.2,10.1z"/>
				<path d="M47.1,9.2v1.1H48v0.7h-0.9v2.2c0,0.4,0.2,0.6,0.6,0.6c0.1,0,0.2,0,0.3,0v0.7c-0.1,0-0.3,0-0.5,0c-0.9,0-1.3-0.3-1.3-1.1
					v-2.4h-0.7v-0.7h0.7V9.2H47.1z"/>
				<path d="M52.6,13.3c-0.2,0.8-0.9,1.2-1.8,1.2c-1.2,0-1.9-0.8-1.9-2.2c0-1.3,0.8-2.2,1.9-2.2c1.2,0,1.9,0.8,1.9,2.1v0.3h-3v0
					c0,0.7,0.5,1.2,1.1,1.2c0.5,0,0.8-0.2,1-0.5L52.6,13.3L52.6,13.3z M49.7,11.9h2.1c0-0.7-0.4-1.1-1-1.1S49.7,11.3,49.7,11.9z"/>
				<path d="M53.8,10.2h0.8v0.7h0.1c0.2-0.5,0.6-0.7,1.3-0.7c0.9,0,1.5,0.6,1.5,1.6v2.7h-0.8v-2.5c0-0.7-0.3-1-0.9-1
					c-0.6,0-1,0.4-1,1.1v2.5h-0.8L53.8,10.2L53.8,10.2z"/>
				<path d="M60.7,12.3c0-1.4,0.8-2.2,2-2.2c1.2,0,2,0.8,2,2.2c0,1.4-0.8,2.2-2,2.2C61.4,14.5,60.7,13.7,60.7,12.3z M63.8,12.3
					c0-0.9-0.4-1.4-1.1-1.4c-0.7,0-1.1,0.5-1.1,1.4c0,0.9,0.4,1.4,1.1,1.4C63.4,13.7,63.8,13.2,63.8,12.3z"/>
				<path d="M65.7,10.2h0.8v0.7h0.1c0.2-0.5,0.6-0.7,1.3-0.7c0.9,0,1.5,0.6,1.5,1.6v2.7h-0.8v-2.5c0-0.7-0.3-1-0.9-1
					c-0.6,0-1,0.4-1,1.1v2.5h-0.8L65.7,10.2L65.7,10.2z"/>
			</g>
		</g>
		<g id="XMLID_415_">
			<g>
				<path d="M41.6,26.2h-4.3l-1,3.1h-1.8l4.1-11.4h1.9l4.1,11.4h-1.9L41.6,26.2z M37.7,24.8h3.4l-1.7-5h0L37.7,24.8z"/>
				<path d="M53.4,25.1c0,2.6-1.4,4.2-3.5,4.2c-1.2,0-2.1-0.5-2.6-1.5h0V32h-1.7V21h1.7v1.4h0c0.5-0.9,1.5-1.5,2.6-1.5
					C52,20.9,53.4,22.6,53.4,25.1z M51.7,25.1c0-1.7-0.9-2.8-2.2-2.8c-1.3,0-2.2,1.1-2.2,2.8c0,1.7,0.9,2.8,2.2,2.8
					C50.8,27.9,51.7,26.8,51.7,25.1z"/>
				<path d="M62.6,25.1c0,2.6-1.4,4.2-3.5,4.2c-1.2,0-2.1-0.5-2.6-1.5h0V32h-1.7V21h1.7v1.4h0c0.5-0.9,1.5-1.5,2.6-1.5
					C61.2,20.9,62.6,22.6,62.6,25.1z M60.8,25.1c0-1.7-0.9-2.8-2.2-2.8c-1.3,0-2.2,1.1-2.2,2.8c0,1.7,0.9,2.8,2.2,2.8
					C59.9,27.9,60.8,26.8,60.8,25.1z"/>
				<path d="M64,17.9h1.7v11.4H64V17.9z"/>
				<path d="M74.5,26.9c-0.2,1.5-1.7,2.5-3.6,2.5c-2.4,0-3.9-1.6-3.9-4.2c0-2.6,1.5-4.3,3.8-4.3c2.3,0,3.7,1.6,3.7,4.1v0.6h-5.9v0.1
					c0,1.4,0.9,2.4,2.2,2.4c0.9,0,1.7-0.5,1.9-1.2L74.5,26.9L74.5,26.9z M68.8,24.4h4.2c0-1.3-0.9-2.1-2-2.1
					C69.7,22.3,68.9,23.1,68.8,24.4z"/>
				<path d="M83.7,17.9c2.2,0,3.8,1.5,3.8,3.7c0,2.2-1.6,3.8-3.8,3.8h-2.4v3.9h-1.8V17.9C79.5,17.9,83.7,17.9,83.7,17.9z M81.2,23.9
					h2c1.5,0,2.4-0.8,2.4-2.3c0-1.4-0.9-2.3-2.4-2.3h-2C81.2,19.4,81.2,23.9,81.2,23.9z"/>
				<path d="M88.1,25.1c0-2.6,1.5-4.3,3.9-4.3c2.4,0,3.9,1.6,3.9,4.3c0,2.6-1.5,4.3-3.9,4.3C89.6,29.4,88.1,27.8,88.1,25.1z
					 M94.3,25.1c0-1.8-0.8-2.9-2.2-2.9s-2.2,1.1-2.2,2.9c0,1.8,0.8,2.9,2.2,2.9S94.3,26.9,94.3,25.1z"/>
				<path d="M97.2,25.1c0-2.6,1.4-4.2,3.5-4.2c1.2,0,2.1,0.6,2.6,1.5h0v-4.5h1.7v11.4h-1.7v-1.4h0c-0.5,0.9-1.4,1.5-2.6,1.5
					C98.6,29.4,97.2,27.7,97.2,25.1z M98.9,25.1c0,1.7,0.9,2.8,2.2,2.8c1.3,0,2.2-1.1,2.2-2.8c0-1.7-0.9-2.8-2.2-2.8
					C99.8,22.4,98.9,23.5,98.9,25.1z"/>
				<path d="M112.3,23.8c-0.1-0.9-0.8-1.5-2-1.5c-1.3,0-2.2,1.1-2.2,2.8c0,1.8,0.9,2.8,2.2,2.8c1.1,0,1.8-0.5,1.9-1.5h1.6
					c-0.2,1.7-1.6,2.9-3.6,2.9c-2.4,0-3.9-1.6-3.9-4.3c0-2.6,1.5-4.3,3.9-4.3c2.1,0,3.5,1.3,3.6,3L112.3,23.8L112.3,23.8z"/>
				<path d="M115,26.9c0-1.5,1.1-2.3,3.1-2.4l2.3-0.1v-0.6c0-0.9-0.6-1.4-1.6-1.4c-0.9,0-1.6,0.5-1.7,1.2h-1.6
					c0-1.5,1.4-2.6,3.4-2.6c2,0,3.3,1.1,3.3,2.7v5.7h-1.6v-1.4h0c-0.5,0.9-1.5,1.5-2.6,1.5C116.1,29.4,115,28.4,115,26.9z
					 M120.3,26.2v-0.6l-2,0.1c-1,0.1-1.6,0.5-1.6,1.2c0,0.7,0.6,1.2,1.5,1.2C119.4,28.1,120.3,27.3,120.3,26.2z"/>
				<path d="M126.8,20.9c1.8,0,3.2,1,3.2,2.5h-1.6c-0.1-0.7-0.7-1.2-1.6-1.2c-0.9,0-1.5,0.4-1.5,1.1c0,0.5,0.4,0.8,1.3,1l1.4,0.3
					c1.7,0.4,2.3,1,2.3,2.2c0,1.5-1.4,2.5-3.5,2.5c-2,0-3.3-1-3.4-2.5h1.7c0.1,0.8,0.8,1.2,1.8,1.2c1,0,1.7-0.4,1.7-1.1
					c0-0.5-0.3-0.8-1.2-1l-1.5-0.4c-1.5-0.4-2.3-1.1-2.3-2.3C123.5,21.9,124.9,20.9,126.8,20.9z"/>
				<path d="M133.9,19v2h1.6v1.4h-1.6v4.6c0,0.7,0.3,1,1,1c0.2,0,0.5,0,0.6,0v1.3c-0.2,0-0.6,0.1-0.9,0.1c-1.7,0-2.3-0.6-2.3-2.2
					v-4.8H131V21h1.2v-2L133.9,19L133.9,19z"/>
				<path d="M140.1,20.9c1.8,0,3.2,1,3.2,2.5h-1.6c-0.1-0.7-0.7-1.2-1.6-1.2c-0.9,0-1.5,0.4-1.5,1.1c0,0.5,0.4,0.8,1.3,1l1.4,0.3
					c1.7,0.4,2.3,1,2.3,2.2c0,1.5-1.4,2.5-3.5,2.5c-2,0-3.3-1-3.4-2.5h1.7c0.1,0.8,0.8,1.2,1.8,1.2c1,0,1.7-0.4,1.7-1.1
					c0-0.5-0.3-0.8-1.2-1l-1.5-0.4c-1.5-0.4-2.3-1.1-2.3-2.3C136.8,21.9,138.1,20.9,140.1,20.9z"/>
			</g>
		</g>
		<g id="XMLID_1370_">
			
				<linearGradient id="XMLID_00000092436386313564700440000006274419202590507407_" gradientUnits="userSpaceOnUse" x1="18.0984" y1="31.7633" x2="18.0984" y2="8.6586" gradientTransform="matrix(1 0 0 -1 0 39.2453)">
				<stop  offset="0" style="stop-color:#F452FF"/>
				<stop  offset="1" style="stop-color:#832BC1"/>
			</linearGradient>
			
				<path id="XMLID_1400_" style="fill-rule:evenodd;clip-rule:evenodd;fill:url(#XMLID_00000092436386313564700440000006274419202590507407_);" d="
				M29.2,27.5c-0.2,0.6-0.7,1.4-1.5,1.9c-0.4,0.3-0.9,0.6-1.6,0.8c-0.7,0.2-1.7,0.3-2.8,0.3H12.9c-1.1,0-2.1-0.1-2.8-0.3
				c-0.7-0.2-1.2-0.5-1.6-0.8c-0.7-0.6-1.3-1.4-1.5-1.9c-0.5-1.1-0.5-2.5-0.5-3.3l0,0V13.8l0,0c0-0.8,0-2.1,0.5-3.3
				C7.2,10,7.7,9.2,8.5,8.6C8.9,8.3,9.4,8,10.1,7.8c0.7-0.2,1.7-0.3,2.8-0.3l0,0h10.4l0,0c1.1,0,2.1,0.1,2.8,0.3
				c0.7,0.2,1.2,0.5,1.6,0.8c0.7,0.6,1.3,1.4,1.5,1.9c0.5,1.1,0.5,2.5,0.5,3.3v10.4C29.7,25.1,29.6,26.4,29.2,27.5z"/>
			<path id="XMLID_1398_" class="st2" d="M29.2,27.5c-0.2,0.6-0.7,1.4-1.5,1.9c-0.4,0.3-0.9,0.6-1.6,0.8c-0.7,0.2-1.7,0.3-2.8,0.3
				H12.9c-1.1,0-2.1-0.1-2.8-0.3c-0.7-0.2-1.2-0.5-1.6-0.8c-0.7-0.6-1.3-1.4-1.5-1.9c-0.5-1.1-0.5-2.5-0.5-3.3l0,0V13.8l0,0
				c0-0.8,0-2.1,0.5-3.3C7.2,10,7.7,9.2,8.5,8.6C8.9,8.3,9.4,8,10.1,7.8c0.7-0.2,1.7-0.3,2.8-0.3l0,0h10.4l0,0
				c1.1,0,2.1,0.1,2.8,0.3c0.7,0.2,1.2,0.5,1.6,0.8c0.7,0.6,1.3,1.4,1.5,1.9c0.5,1.1,0.5,2.5,0.5,3.3v10.4
				C29.7,25.1,29.6,26.4,29.2,27.5z"/>
			<g id="XMLID_1386_">
				<g>
					<path class="st3" d="M19.8,20.8c-0.3-0.4-1-0.6-1.7-0.6c-0.7,0-1.3,0.2-1.7,0.6c-0.2,0.2-0.3,0.4-0.3,0.7c-0.1,0.5,0,1,0,1.7
						c0.1,0.7,0.2,1.7,0.3,2.6c0.1,0.7,0.2,1.1,0.3,1.3c0.1,0.4,0.6,0.8,1.3,0.8c0.7,0,1.2-0.4,1.3-0.8c0.1-0.3,0.2-0.6,0.3-1.3
						c0.1-1,0.3-1.9,0.3-2.6c0.1-0.7,0.1-1.2,0-1.7C20.1,21.1,20,21,19.8,20.8z M16.2,17.5c0,1,0.8,1.9,1.9,1.9c1,0,1.9-0.8,1.9-1.9
						c0-1-0.8-1.9-1.9-1.9C17.1,15.6,16.2,16.5,16.2,17.5z M18.1,10c-4.4,0-8,3.6-8.1,8c0,3.6,2.2,6.6,5.4,7.8c0.1,0,0.2,0,0.1-0.1
						c0-0.3-0.1-0.6-0.1-0.8c0-0.1-0.1-0.2-0.2-0.2C12.8,23.6,11,21,11,18.1c0-3.8,3.2-7,7-7c3.9,0,7.1,3.2,7.1,7.1
						c0,2.9-1.8,5.4-4.3,6.5c-0.1,0-0.2,0.1-0.2,0.2c0,0.3-0.1,0.6-0.1,0.8c0,0.1,0.1,0.1,0.1,0.1c3.2-1.1,5.4-4.1,5.4-7.7
						C26.2,13.7,22.6,10,18.1,10z M17.9,13.8c2.5-0.1,4.6,1.9,4.6,4.4c0,1.3-0.5,2.4-1.4,3.2C21,21.4,21,21.5,21,21.6
						c0,0.3,0,0.6,0,0.9c0,0.1,0.1,0.1,0.2,0.1c1.4-1,2.4-2.6,2.4-4.5c0-3.1-2.6-5.6-5.7-5.4c-2.9,0.1-5.2,2.5-5.2,5.4
						c0,1.9,0.9,3.6,2.4,4.6c0.1,0,0.2,0,0.2-0.1c0-0.3,0-0.6,0-0.9c0-0.1,0-0.2-0.1-0.3c-0.9-0.8-1.4-2-1.4-3.3
						C13.8,15.7,15.6,13.9,17.9,13.8z"/>
				</g>
			</g>
		</g>
	</g>
</g>
</svg>
