<?xml version="1.0" encoding="utf-8"?>
<!-- Generator: Adobe Illustrator 26.0.1, SVG Export Plug-In . SVG Version: 6.00 Build 0)  -->
<svg version="1.1" id="圖層_1" xmlns="http://www.w3.org/2000/svg" xmlns:xlink="http://www.w3.org/1999/xlink" x="0px" y="0px"
	 viewBox="0 0 1024 1024" style="enable-background:new 0 0 1024 1024;" xml:space="preserve">
<style type="text/css">
	.st0{fill:#A0A0A0;}
	.st1{fill:#FFFFFF;}
</style>
<path class="st0" d="M512,0C229.2,0,0,229.2,0,512c0,255.5,187.2,467.4,432,505.8V660H302V512h130V399.2
	C432,270.9,508.4,200,625.4,200c56,0,114.6,10,114.6,10v126h-64.6c-63.6,0-83.4,39.5-83.4,80v96h142l-22.7,148H592v357.8
	c244.8-38.4,432-250.2,432-505.8C1024,229.2,794.8,0,512,0z"/>
<path class="st1" d="M591.7,660H711l22.7-148h-142v-96c0-40.5,19.8-80,83.4-80h64.6V210c0,0-58.6-10-114.6-10
	c-117,0-193.4,70.9-193.4,199.2V512h-130v148h130v357.8c26.5,4.1,53.2,6.2,80,6.2l0,0c26.8,0,53.5-2.1,80-6.2L591.7,660z"/>
</svg>
