<svg width="443" height="70" viewBox="0 0 443 70" fill="none" xmlns="http://www.w3.org/2000/svg">
<path d="M65.9276 59.7246L60.6004 68.7242C52.1789 64.6891 38.9968 53.74 34.531 35.9561C30.0652 54.3181 17.756 64.4058 1.61562 68.7242L0.244141 65.8452C13.7775 59.872 23.7973 50.793 27.0389 32.9298H2.90776V28.532H27.6057C27.821 26.8092 27.9684 25.075 28.0364 23.2048C28.1837 19.6005 28.1837 15.214 28.1837 11.0316H6.64814V6.84912H58.9342V11.0316H36.6053C36.6733 15.7807 36.5372 20.3939 36.1745 25.4377C36.1065 26.5145 35.9592 27.5233 35.8912 28.532H62.822V32.9298H37.036C42.4539 47.1207 54.1171 55.2588 65.9276 59.7246Z" fill="#D80C18"/>
<path d="M110.801 10.1816V24.2251C120.095 28.6909 128.154 33.7347 134.921 39.4246L128.585 46.9848C123.178 40.5808 117.137 34.3128 110.801 28.8382V68.7357H102.81V10.1816H78.1802V5.71582H140.407V10.1816H110.801Z" fill="#D80C18"/>
<path d="M160.197 47.0526C160.412 55.4741 159.403 63.1136 157.896 67.9421L150.834 65.1311C153.498 60.8127 156.014 54.5447 157.386 46.7692L160.197 47.0526ZM191.242 39.4924C188.51 50.5096 181.517 60.3819 171.509 65.9925L169.854 63.6123C178.57 56.4149 182.027 48.3447 183.535 41.4987H178.423C178.57 41.782 178.638 42.0767 178.785 42.3601L172.948 44.4456C172.585 42.7908 172.087 40.9886 171.577 39.1184C165.241 41.714 158.542 43.3689 153.861 44.2303L152.138 37.2482C153.793 37.2482 155.448 37.2482 157.182 37.1802C159.698 34.0065 162.724 29.8354 165.467 24.8709C161.512 26.2424 157.397 27.2512 154.087 27.7499L152.716 20.9832L157.114 21.1985C159.562 15.792 161.795 8.88926 163.166 1.6125L170.579 3.8454C167.984 10.1134 164.391 16.5174 161.07 21.1985C163.155 21.1985 165.252 21.1305 167.553 20.9832C168.777 18.3876 170.001 15.5766 171.01 12.6977L177.777 15.6446C173.889 23.2048 167.258 31.5583 161.285 36.9649C164.379 36.7495 167.474 36.4661 170.647 36.1034C170.148 34.3012 169.491 32.5784 168.924 30.9916L171.52 29.6994C173.469 32.1477 175.34 35.3213 176.927 38.3363H183.115L184.77 36.8288L191.242 39.4924ZM163.223 63.1816C163.291 58.5684 163.076 52.6631 162.498 46.6218L165.161 45.9758C167.462 51.6657 169.196 57.571 169.91 61.9688L163.223 63.1816ZM172.438 57.2083C171.146 52.6745 169.842 49.3535 167.972 44.967L170.205 43.5955C173.231 46.8372 175.68 50.0789 177.845 54.114L172.438 57.2083ZM217.379 59.2258L211.621 66.3552C206.442 62.6148 201.613 54.4767 198.949 45.1824V61.1754C198.949 69.2455 192.035 70.6057 181.086 65.2104L181.812 62.3315C191.027 63.5556 191.899 63.1249 191.899 59.5999V33.8139H179.295V10.1814H189.383C190.392 6.87172 190.891 4.12877 191.469 0.819092L199.392 2.68928C197.442 5.63625 195.572 8.0165 193.418 10.1814H210.919V33.8025H199.04C199.686 37.4749 200.842 40.7846 202.35 43.8109C204.515 41.2946 206.238 38.9144 208.255 35.5253L214.376 39.9911C211.134 43.0175 207.745 45.035 204.152 46.9052C207.586 52.1644 212.268 56.2675 217.379 59.2258ZM186.13 19.9744H203.993V13.8538H186.13V19.9744ZM186.13 30.1981H203.993V23.4994H186.13V30.1981Z" fill="#D80C18"/>
<path d="M228.544 59.9399H253.026V2.25854H261.017V26.6731H283.63V30.8555H261.017V59.9512H291.337V64.417H228.544V59.9399V59.9399Z" fill="#D80C18"/>
<path d="M339.169 26.3103V30.0507H360.841V33.5077H339.169V37.6902H365.884V41.2946H305.029V37.6902H331.529V33.5077H309.416V30.0507H331.529V26.3103H311.365V22.706H331.529V18.3875H304.168V14.7831H331.529V10.8954H312.227V7.29101H331.529V1.38574H339.158V7.29101H358.676V14.7831H366.814V18.3875H358.676V26.3103H339.169V26.3103ZM312.952 45.2503H357.746V68.3727H350.401V64.9837H320.297V68.5087H312.952V45.2503V45.2503ZM320.297 53.2411H350.401V48.7073H320.297V53.2411ZM320.297 61.4586H350.401V56.6302H320.297V61.4586ZM339.169 14.7945H351.49V10.9067H339.169V14.7945ZM339.169 22.706H351.49V18.3875H339.169V22.706Z" fill="#D80C18"/>
<path d="M442.721 60.7334L439.547 68.3728C431.126 66.0719 418.012 59.9513 413.41 44.321H405.85V59.6566C410.463 59.0105 414.781 58.3645 417.876 57.7864L418.669 60.7334C412.118 63.9071 399.582 67.0694 391.659 68.2255L390.152 61.1641C392.668 61.0168 395.626 60.8014 398.72 60.4387V44.3097H390.004C388.633 54.318 385.822 62.6716 380.789 69.1549L378.273 67.3527C383.453 56.7663 383.748 42.7229 383.748 19.9632V4.85425H437.904V20.3372H391.24V24.2249C391.24 30.0622 391.024 35.5368 390.514 40.6486H402.687V32.8732H393.257V29.2008H402.687V22.5021H409.749V29.2008H419.111V22.5021H426.241V29.2008H437.62V32.8732H426.241V40.6486H440.499V44.321H431.568L437.042 49.0022C433.087 51.3031 429.188 53.3206 425.946 54.6921C431.273 58.1491 437.473 59.5886 442.721 60.7334ZM391.228 8.52662V16.6648H430.548V8.52662H391.228ZM409.738 39.9232H419.1V32.1478H409.738V39.9232ZM416.799 44.321C418.386 47.6307 420.471 50.2263 422.772 52.3119C425.436 50.147 428.394 47.3473 430.842 44.321H416.799Z" fill="#D80C18"/>
</svg>
