<svg width="131" height="27" viewBox="0 0 131 27" fill="none" xmlns="http://www.w3.org/2000/svg">
<path d="M15.1248 7.68497C15.1248 11.8674 12.1212 14.9051 6.88462 19.7222L4.7764 21.6718V21.8644H15.6349V23.9727H0.72998V22.2838L3.25757 20.0849C8.6188 15.3924 11.8151 11.4367 11.8151 8.04767C11.8151 5.90544 10.5683 3.03781 7.15665 3.03781C4.88974 3.03781 2.88353 4.1826 1.47805 5.3954V2.77713C2.91754 2.07439 5.21845 1.17896 7.70071 1.17896C12.5972 1.17896 15.1248 4.62465 15.1248 7.68497Z" fill="black"/>
<path d="M19.3638 12.8535C19.3638 5.31602 22.8095 1.2356 27.468 1.2356C32.2851 1.2356 35.1981 5.38403 35.1981 12.5361C35.1981 20.1642 32.1944 24.4147 27.1506 24.3807C22.6508 24.3467 19.3638 20.2662 19.3638 12.8535ZM31.8771 12.6721C31.8771 7.15221 30.4716 3.06045 27.2753 3.06045C24.5663 3.06045 22.6735 6.76685 22.6735 12.8988C22.6735 18.7361 24.4303 22.5672 27.2413 22.5672C30.4149 22.5672 31.8771 18.4187 31.8771 12.6721Z" fill="black"/>
<path d="M52.948 7.68497C52.948 11.8674 49.9444 14.9051 44.7079 19.7222L42.5996 21.6718V21.8644H53.4581V23.9727H38.5532V22.2838L41.0808 20.0849C46.442 15.3924 49.6384 11.4367 49.6384 8.04767C49.6384 5.90544 48.3916 3.03781 44.9799 3.03781C42.713 3.03781 40.7068 4.1826 39.3013 5.3954V2.77713C40.7408 2.07439 43.0417 1.17896 45.5239 1.17896C50.4205 1.17896 52.948 4.62465 52.948 7.68497Z" fill="black"/>
<path d="M71.9105 7.68497C71.9105 11.8674 68.9068 14.9051 63.6703 19.7222L61.5621 21.6718V21.8644H72.4205V23.9727H57.5156V22.2838L60.0432 20.0849C65.4044 15.3924 68.6008 11.4367 68.6008 8.04767C68.6008 5.90544 67.354 3.03781 63.9423 3.03781C61.6754 3.03781 59.6692 4.1826 58.2637 5.3954V2.77713C59.7032 2.07439 62.0041 1.17896 64.4863 1.17896C69.3829 1.17896 71.9105 4.62465 71.9105 7.68497Z" fill="black"/>
<path d="M100.712 26.3526C98.5582 26.1259 94.1151 25.6158 89.9213 23.5189C86.8043 25.0151 82.7579 26.1259 77.1473 26.7153L76.8413 25.7292C80.5477 25.1398 84.5488 23.9496 87.8358 22.3061C86.5323 21.456 85.3195 20.436 84.2654 19.1665C82.3386 20.8667 80.185 22.0228 78.1448 22.8729L77.6914 22.0568C80.2417 20.6173 83.132 17.7497 84.6281 14.916H80.7744V4.885H87.3484C87.6318 4.14825 87.8811 3.35484 88.1078 2.61809H77.3967V1.34863H100.712V2.61809H90.9074C90.2274 3.46818 89.5473 4.22759 88.8446 4.885H97.6855V14.916H85.7616L87.4277 15.4488C87.0877 15.9588 86.7477 16.4689 86.385 16.9222H93.639L94.7158 16.4462L97.1754 17.9197C95.7586 19.5632 94.2058 21.0027 92.2789 22.2268C95.5659 23.1902 98.9323 23.4736 101.823 23.6663L100.712 26.3526ZM83.2 7.68462H95.2372V6.15445H83.2V7.68462ZM83.2 10.6089H95.2372V8.96543H83.2V10.6089ZM83.2 13.6352H95.2372V11.8784H83.2V13.6352ZM89.6606 21.3087C91.2701 20.3226 92.6303 19.2458 93.5144 18.0557H85.3875C85.2515 18.1917 85.1042 18.3391 84.9908 18.4751C86.4303 19.6992 88.0171 20.606 89.6606 21.3087Z" fill="black"/>
<path d="M105.302 14.5989L104.939 13.6921C109.043 12.0486 111.819 9.83835 113.916 7.03872H106.152V5.76926H116.523V3.64971C113.214 3.8424 109.949 3.89907 107.66 3.8424L107.49 2.8563C115.9 2.55027 121.261 1.55283 125.194 0L127.427 2.09687C125.5 2.72027 122.361 3.17367 119.017 3.45703V5.78059H129.445V7.05007H120.241C123.664 10.0537 127.234 10.9265 130.635 11.5272L129.218 14.0775C126.441 13.4881 121.998 11.2778 119.017 7.27675V12.2639H116.523V7.36743C114.37 10.5751 110.323 13.1027 105.302 14.5989ZM119.504 18.3052H130.159V19.5747H119.504V23.5078C119.504 26.4208 117.011 27.6449 111.774 24.6639L112.058 23.7005C116.421 24.6639 117.011 24.2899 117.011 22.771V19.5747H105.676V18.3052H117.011V16.1517L119.13 16.6277C120.06 15.9477 120.966 15.0976 121.681 14.2248H110.006V12.9553H122.1L122.78 12.5926L125.41 14.4628C123.993 15.7096 121.159 16.9791 119.493 17.6025V18.3052H119.504Z" fill="black"/>
</svg>
