<svg width="556" height="37" viewBox="0 0 556 37" fill="none" xmlns="http://www.w3.org/2000/svg">
<g opacity="0.7">
<path d="M34.899 31.0495L33.8789 35.2659C29.7191 35.606 22.431 35.6513 18.7359 35.4586C13.216 35.1186 10.2804 34.2345 7.82082 29.814C6.54002 32.1943 4.38645 34.9939 2.38025 36.9888L0 34.3818C1.96087 32.8857 4.34112 30.8568 5.63325 29.168V20.5424H0.646067V18.5815H9.44165V28.7486C11.4025 31.7069 14.0095 31.9676 18.6226 32.0469C23.8365 32.1603 30.3311 31.6956 34.899 31.0495ZM6.86871 16.0426C5.54257 14.2404 3.24167 11.5541 1.5755 9.83128L2.44825 8.52782C4.45446 9.44592 7.46944 11.1801 9.50966 12.9823L6.86871 16.0426ZM2.98097 2.39584L3.85374 1.09238C5.7806 1.93114 9.0336 3.66533 10.9945 5.38817L8.38754 8.41447C6.83471 6.41959 4.8285 4.19803 2.98097 2.39584ZM17.4892 9.10589H11.4479V7.19036H19.9827V5.22947C17.6818 5.38816 15.1882 5.42217 12.468 5.42217L12.3206 3.84666C19.0873 3.42728 24.6299 2.12383 28.597 0.389648L31.3513 3.46129C28.8917 4.11869 26.3641 4.57208 23.5758 4.92345V7.19036H32.6774V9.10589H24.4032C26.8968 11.1801 29.9231 12.1322 33.5048 12.9823L31.4986 16.4733C27.9849 15.0565 25.4913 13.2883 23.5645 10.5681V15.1359H19.9714V10.6814C17.7385 13.515 14.4175 15.3965 10.4958 16.7453L9.84969 15.4079C13.8281 13.2883 16.0497 11.1801 17.4892 9.10589ZM28.2569 26.1417C28.563 25.2576 28.8577 24.0675 29.1977 22.0726H25.9447C25.718 22.8433 25.4573 23.5687 25.2306 24.2261L21.8643 23.6141C22.465 21.8119 23.0317 19.545 23.3718 18.0488H20.2774C19.7447 22.9226 17.5232 27.8645 11.4025 29.9387L10.7564 28.6353C15.0636 26.0623 16.0837 22.5713 16.5711 18.0488H13.1367V16.1673H27.4182C27.1915 17.3234 26.8515 18.7742 26.4774 20.2364H33.0514C32.5641 24.2261 31.884 26.561 31.2039 28.1365C29.9571 31.0155 25.9107 31.4009 22.295 27.8305L22.9411 26.4477C26.3981 27.7511 27.4975 27.9438 28.2569 26.1417Z" fill="black"/>
<path d="M75.2155 31.0834L73.8554 35.2658C69.6956 35.5379 63.7677 35.6512 59.1999 35.4585C52.0931 35.1525 49.4522 33.4637 47.8654 30.2447C46.6526 32.8176 44.9977 35.0391 43.2522 37L40.7246 34.3477C42.4588 33.0103 44.499 31.2421 45.7118 29.5193V20.429H41.3707V18.4681H49.4975V29.2472C51.7644 31.7748 53.7253 32.0128 59.0865 32.0128C64.3344 32.0015 70.6364 31.7408 75.2155 31.0834ZM41.484 9.79719L42.3115 8.45972C44.499 9.42316 47.4913 11.18 49.5202 13.0275L46.8339 16.0539C45.4851 14.2063 43.2975 11.554 41.484 9.79719ZM48.9195 8.25571C47.446 6.34018 45.3264 4.18663 43.5129 2.35044L44.3857 1.01294C46.5052 1.81769 49.5202 3.50654 51.5264 5.27473L48.9195 8.25571ZM55.4935 30.3127H51.9798V13.2089H54.8134V2.84916H70.183V13.2089H73.0506V27.3657C73.0506 30.5507 70.1037 32.0129 65.1618 29.0205L65.5359 27.5584C69.0156 28.2158 69.3896 27.8304 69.3896 26.4476V15.1698H55.4935V30.3127V30.3127ZM67.4627 25.6768H57.4544V17.2326H67.4627V25.6768ZM58.2478 13.2089H60.7074V7.49628H66.6807V4.77601H58.2591V13.2089H58.2478ZM64.4478 19.1595H60.4013V23.8067H64.4478V19.1595ZM66.6693 13.2089V9.37782H63.643V13.2089H66.6693Z" fill="black"/>
<path d="M112.994 2.50903V33.0442C112.994 36.5692 110.081 38.1107 103.586 34.8804L103.926 33.3502C108.879 34.0756 109.219 33.7696 109.219 31.6954V13.2088H101.251L103.711 14.433C102.657 15.8498 101.557 17.1192 100.344 18.196H105.105V25.0647H101.138V28.5898C101.138 29.3605 101.285 29.7005 101.739 29.8592C102.192 30.0519 103.745 30.0519 104.266 29.8592C105.06 29.5872 105.207 28.7824 105.207 25.9488H106.68C107.734 30.4713 107.44 32.2395 104.833 32.6588C104.039 32.7382 102.113 32.7722 101.319 32.6928C98.8596 32.5795 97.9528 32.1148 97.9528 29.4738V25.0647H96.7853C95.9579 30.3579 92.1042 33.4636 87.7631 34.6197L87.2303 33.2822C90.064 32.0128 93.1243 29.2131 93.5777 25.0761H89.6899V18.2073H93.8837C93.2376 16.8245 92.1042 14.875 91.3901 13.8322L92.0362 13.1748H86.5956V36.5012H82.7759V2.50903H96.2979V13.1748H92.8183C94.2917 14.1723 96.0713 15.7477 96.9327 16.8925L95.2325 18.196H98.3722C99.1316 16.6998 99.8116 14.977 100.265 13.2088H99.2789V2.50903H112.994ZM86.5843 6.88417H92.6709V4.39057H86.5843V6.88417ZM86.5843 11.3273H92.6709V8.79971H86.5843V11.3273ZM101.693 19.9642H93.0789V23.2965H101.693V19.9642ZM109.208 4.39057H102.861V6.88417H109.208V4.39057ZM109.208 8.79971H102.861V11.3726H109.208V8.79971Z" fill="black"/>
<path d="M133.623 9.21888H121.268V7.224H126.901C125.881 5.22912 124.6 3.12092 123.728 1.85145L124.782 0.774658C126.595 1.93078 128.862 3.84632 130.37 5.56917L128.25 7.224H133.611V9.21888H133.623ZM132.863 33.4634H125.609V36.3424H122.288V22.6049H132.863V33.4634ZM132.75 14.5121H122.367V12.5965H132.75V14.5121ZM122.367 17.5044H132.716V19.4199H122.367V17.5044ZM129.576 24.5205H125.609V31.5365H129.576V24.5205ZM155.34 33.6561L153.447 36.8751C151.441 35.4583 147.632 33.2254 144.946 31.7746L145.32 30.6638H141.092L143.212 32.2733C140.797 34.2341 135.958 35.957 132.297 36.6484L131.809 35.1523C135.357 33.8148 137.363 32.6586 139.664 30.6638H135.391V18.9212H152.087V30.6638H147.099C149.82 31.3552 152.846 32.432 155.34 33.6561ZM141.704 5.53517H133.203V3.61963H141.704V1.09202H145.445V3.61963H154.172V5.53517H145.445V7.56402H152.019V9.44555H135.289V7.56402H141.716V5.53517H141.704ZM134.144 10.8284H153.333V17.6178H134.144V10.8284ZM137.318 15.7815H139.664V12.6759H137.318V15.7815ZM138.984 22.2196H148.46V20.6441H138.984V22.2196ZM138.984 25.4839H148.46V23.8291H138.984V25.4839ZM138.984 28.8956H148.46V27.0934H138.984V28.8956ZM142.498 15.7815H144.878V12.6759H142.498V15.7815ZM147.711 15.7815H150.126V12.6759H147.711V15.7815Z" fill="black"/>
<path d="M167.286 7.8361H161.846V5.87522H167.32V1.19406H170.834V5.87522H172.874V1.11475H176.275V5.87522H179.482V1.19406H182.883V5.87522H184.809V1.11475H188.289V5.87522H194.183V7.8361H188.289V10.2164C188.289 11.1798 188.629 11.5198 189.797 11.5992C191.157 11.6785 192.098 11.5198 193.084 10.7604L194.523 13.3674C193.129 14.5575 191.202 14.8295 189.083 14.7502C185.421 14.6368 184.809 13.7527 184.809 10.9191V7.84741H182.883V14.1721H172.874V7.84741H170.721C170.233 11.7238 168.193 14.2514 162.526 15.6683L161.993 14.2514C165.427 12.6306 166.946 11.0551 167.286 7.8361ZM162.446 16.3483H193.378V23.3304H189.638V18.2638H179.811V22.0269H189.139V30.5051C189.139 33.9622 185.773 34.8802 180.831 32.772L181.092 31.1625C184.911 31.5479 185.546 31.2419 185.546 29.7797V23.9538H179.8V36.6144H176.025V23.9538H170.551V33.7695H166.958V22.0269H176.025V18.2638H166.164V23.3304H162.424V16.3483H162.446ZM176.275 12.2452H179.482V7.8361H176.275V12.2452Z" fill="black"/>
<path d="M207.626 11.8714C205.892 14.8637 203.806 17.4366 201.471 19.5448L200.372 18.3887C203.466 14.2063 206.232 8.10834 207.773 0.854248L211.74 1.81769C211.547 2.58844 211.321 3.34785 211.06 4.08459C213.894 6.54418 216.693 9.76316 217.974 12.0301L214.88 14.1383C213.554 11.3047 212.08 8.57306 210.425 5.96612C209.893 7.38294 209.292 8.76574 208.612 10.0692C210.505 11.6787 212.159 13.6396 213.633 15.8271L210.493 17.788C209.598 15.5098 208.612 13.5942 207.626 11.8714ZM214.426 32.5002L211.865 35.2998C209.711 32.5002 206.311 29.3945 203.625 27.207L204.339 25.9035C206.118 26.6743 207.852 27.6264 209.519 28.7032C210.539 26.4363 211.559 23.4439 212.125 20.8823H203.398V18.9668H211.933L212.919 18.2414L216.467 19.9302C215.299 23.3079 213.146 27.105 210.992 29.7459C212.239 30.5847 213.372 31.5481 214.426 32.5002ZM221.68 28.7032L224.888 31.0041C221.635 33.8037 217.861 35.8779 214.007 36.9887L213.361 35.5719C216.659 33.883 218.994 31.7748 221.68 28.7032ZM223.381 5.08203H215.707V3.12115H234.556V5.08203H227.302C226.509 6.57819 225.602 8.07434 224.888 9.15112H232.596V28.4878H218.019V9.15112H222.814C223.041 7.88165 223.267 6.30616 223.381 5.08203ZM228.935 11.0553H221.612V14.739H228.935V11.0553ZM228.935 16.6659H221.612V20.4969H228.935V16.6659ZM228.935 22.4125H221.612V26.5609H228.935V22.4125ZM235.509 33.4636L233.015 36.796C231.281 34.9144 228.402 32.3868 225.648 30.3466L226.441 28.8845C229.501 30.0066 232.596 31.4347 235.509 33.4636Z" fill="black"/>
<path d="M249.597 10.058V36.7167H245.891V16.2353C244.644 17.8901 243.284 19.3863 241.81 20.6898L240.756 19.5337C244.576 14.2744 247.138 7.53039 248.532 0.468994L252.692 1.6251C251.864 4.65142 250.844 7.49638 249.597 10.058ZM264.865 9.49126V32.4663C264.865 36.6147 261.431 38.1449 254.403 34.3478L254.777 32.8177C260.637 33.8151 260.966 33.3504 260.966 31.1288V9.49126H256.806C255.48 12.2115 253.825 14.8638 251.819 17.3121L250.459 16.3486C252.986 11.8942 254.46 6.98633 255.219 0.922368L259.447 1.84046C259.028 3.75599 258.427 5.63753 257.667 7.51906H269.829L271.076 6.63497L274.964 8.90187C273.524 11.3161 271.031 14.1951 269.149 15.6119L267.937 14.5804C268.764 13.0049 269.557 11.0101 270.011 9.47991H264.865V9.49126ZM259.084 18.0035C257.803 22.492 255.378 27.8192 251.796 31.8543L250.515 30.8908C252.748 26.7877 254.335 22.0726 255.163 16.8133L259.084 18.0035ZM275.168 29.5534L271.122 31.3555C269.988 26.7877 268.095 21.2338 266.588 17.5501L267.914 16.7453C270.713 20.2704 273.513 25.3709 275.168 29.5534Z" fill="black"/>
<path d="M291.308 21.381V32.6929C291.308 36.2633 287.829 38.2581 281.561 34.6538L281.935 33.1576C286.922 33.9624 287.409 33.4977 287.409 31.8201V23.1492C285.516 23.954 283.669 24.6114 282.229 25.0307L280.869 20.8483C282.762 20.5423 285.097 20.0776 287.409 19.5448V11.0667H281.436V9.15112H287.409V1.28496H291.297V9.15112H296.205V11.0667H291.297V18.5814C292.918 18.196 294.437 17.7767 295.57 17.3913L296.171 18.8875C294.856 19.6582 293.122 20.5309 291.308 21.381ZM309.783 35.9912C306.803 34.7671 304.604 32.1602 303.017 28.8958C299.843 31.3101 296.409 33.0443 293.042 34.2231L292.362 32.7609C295.876 31.038 299.05 28.9638 301.917 26.1982C300.557 22.4351 299.843 18.1394 299.503 14.195C297.429 14.467 295.389 14.6937 293.235 14.9657L293.042 13.0502C295.196 12.7782 297.27 12.5514 299.344 12.2794C299.084 8.48236 299.038 4.65129 299.004 1.22827H302.779C302.779 4.56062 302.858 8.21033 303.085 11.7807C306.519 11.3613 309.965 10.8966 313.547 10.4432L313.807 12.3588C310.18 12.8575 306.7 13.3222 303.232 13.7416C303.493 17.0739 303.992 20.2249 304.785 23.0246C306.519 20.803 308.106 18.2641 309.579 15.2377L313.172 17.2666C311.098 20.871 308.673 23.8973 305.998 26.3909C307.131 28.8052 308.605 30.6867 310.611 31.8768C312.198 32.7949 312.572 31.8428 312.651 25.4275H314.159C315.825 33.3503 315.099 38.1788 309.783 35.9912ZM308.99 10.0239C307.857 7.99499 305.737 4.95734 304.309 3.12115L305.363 2.01036C307.369 3.08713 310.577 5.7281 312.13 7.38294L308.99 10.0239Z" fill="black"/>
<path d="M323.385 3.54053H352.81V36.1046H348.843V32.8402H327.352V36.2519H323.385V3.54053ZM348.843 30.8907V5.53541H327.352V30.8907H348.843ZM330.753 11.486H345.181V24.7587H330.753V11.486ZM341.475 22.9112V13.3222H334.482V22.9112H341.475Z" fill="black"/>
<path d="M378.425 26.7874C374.345 29.9384 367.431 33.5428 362.942 35.2996L361.242 30.9698C362.183 30.7772 363.203 30.5051 364.302 30.1651V15.2375H372.611V6.41929H362.376V4.4244H376.43V17.2324H368.156V28.975C371.557 27.8642 375.07 26.5154 377.677 25.3252L378.425 26.7874ZM395.461 32.16L392.82 36.4557C389.612 34.8009 386.926 32.432 384.818 29.4737C382.245 32.432 378.697 34.9596 373.824 36.6824L373.03 35.2656C377.564 32.8854 380.738 29.8137 382.925 26.3227C381.531 23.5571 380.511 20.4174 379.978 16.9604C379.037 18.7286 377.972 20.2927 376.804 21.5622L375.524 20.5987C378.437 15.6116 379.683 7.82478 380.364 1.11475L384.705 1.91949C384.365 4.14105 383.832 6.71398 383.038 9.32092H394.52V11.2818H391.267C391.041 16.1896 390.021 21.6755 386.994 26.5154C389.08 28.7029 391.8 30.6298 395.461 32.16ZM384.546 23.2964C386.246 19.4993 387.006 15.3962 387.153 11.2931H382.392C382.086 12.1772 381.746 13.016 381.406 13.9001C381.894 17.2778 382.8 20.4627 384.546 23.2964Z" fill="black"/>
<path d="M433.579 36.5352C428.705 36.3766 423.605 35.3791 419.377 33.3502C415.263 35.2657 409.596 36.4559 401.695 36.7619L401.321 35.0731C407.748 34.4157 412.576 33.1916 416.09 31.5027C414.163 30.1993 412.576 28.6238 411.443 26.7876C409.063 28.7031 406.342 30.1992 403.588 31.0833L402.908 29.7005C406.841 27.6263 410.049 24.1353 412.044 20.5309L415.705 22.2198C415.365 22.7185 414.945 23.2172 414.571 23.7159H432.775V25.6314H427.447C426.461 27.7396 424.988 29.6552 422.914 31.2307C426.167 31.9561 430.168 32.3415 435.268 32.4548L433.579 36.5352ZM404.416 23.3305L401.661 22.4918C402.341 20.9956 403.214 19.0008 404.042 16.2351L405.209 16.4618C405.141 19.2728 404.756 21.6077 404.416 23.3305ZM404.189 12.9028C405.515 11.3726 406.535 10.0238 407.442 8.57299C405.934 9.07171 404.302 9.53641 402.942 9.7631L402.183 6.80481C402.749 6.83881 403.316 6.83882 403.883 6.88416C404.676 5.22932 405.322 3.42714 406.002 0.865536L409.142 1.94229C407.929 4.05051 406.796 5.62603 405.708 6.85016C406.649 6.85016 407.601 6.7708 408.541 6.65745C408.915 5.88671 409.301 5.12729 409.675 4.2432L412.542 5.81871C411.148 8.11962 408.949 10.5339 406.354 12.8348C407.635 12.7554 408.927 12.6081 410.128 12.4154C409.902 11.8033 409.675 11.1912 409.414 10.6132L410.4 10.0011C411.794 11.5766 412.814 13.1861 413.427 14.7956L411.126 15.7931L410.593 13.7982C407.986 14.8296 405.266 15.5211 402.806 15.9518L402.205 12.8801C402.874 12.9028 403.509 12.9028 404.189 12.9028ZM407.329 15.9291C408.235 18.0033 409.063 20.1909 409.403 21.8004L406.683 22.4918C406.603 20.7236 406.422 18.3887 406.229 16.2011L407.329 15.9291ZM410.65 20.9163C410.117 19.1141 409.516 17.3912 408.802 15.6571L409.788 15.1243C411.069 16.5865 412.202 18.1166 412.962 19.7261L410.65 20.9163ZM424.058 6.00007H412.61V4.16385H417.677C416.736 3.13241 415.897 2.36166 414.843 1.51158L415.523 0.355469C417.337 0.933529 419.491 1.88561 420.885 2.96239L419.865 4.15254H424.058V6.00007V6.00007ZM418.731 29.9386C420.545 28.6691 421.871 27.2183 422.698 25.6428H412.724C412.724 25.6428 412.724 25.6768 412.69 25.6768C414.39 27.513 416.317 28.8958 418.731 29.9386ZM413.789 13.7869H422.778V21.075H413.789V13.7869ZM422.698 9.25307H413.857V7.5302H422.698V9.25307ZM413.857 10.6019H422.698V12.3701H413.857V10.6019ZM416.657 19.2728H419.91V15.5551H416.657V19.2728ZM423.265 21.993C423.945 20.5309 424.704 18.7741 425.532 16.0878L426.779 16.3144C426.631 19.0347 426.405 21.0749 426.019 22.7978L423.265 21.993ZM425.112 7.06552C425.872 5.29733 426.439 3.41578 427.153 0.808842L430.247 1.91964C429.034 4.1412 427.901 5.7167 426.813 6.98617C427.833 6.95216 428.853 6.8728 429.794 6.71411C430.213 5.90936 430.621 5.02529 431.04 4.10719L434.067 5.71671C432.707 7.93827 430.44 10.4772 427.867 12.7328C429.114 12.6534 430.36 12.5401 431.494 12.3927C431.267 11.86 431.04 11.3613 430.78 10.8625L431.72 10.2505C433.228 11.7467 434.327 13.1295 435.087 14.705L432.786 15.8951C432.593 15.2037 432.333 14.5123 432.072 13.7415C429.544 14.705 426.439 15.5097 424.104 15.7704L423.503 12.6647C424.217 12.7441 424.976 12.7781 425.69 12.7781C426.903 11.3953 427.844 10.0578 428.717 8.675C427.277 9.20772 425.736 9.63842 424.489 9.86511L423.73 7.03148C424.172 7.06548 424.625 7.06552 425.112 7.06552ZM428.853 15.8611C429.76 17.9693 430.553 20.1229 430.893 21.687L428.207 22.2991C428.173 20.6102 427.946 18.3433 427.719 16.1218L428.853 15.8611ZM432.14 21.1883C431.686 19.3521 431.04 17.4252 430.247 15.6231L431.267 15.0903C432.48 16.5525 433.795 18.2753 434.633 19.9642L432.14 21.1883Z" fill="black"/>
<path d="M456.395 8.25571V35.2658H452.621V31.8542H446.84V36.0026H443.066V8.26706H447.486C447.974 5.80747 448.359 2.7018 448.54 0.638916L453.074 1.52301C452.247 3.67656 450.841 6.3515 449.595 8.27837H456.395V8.25571ZM446.84 18.4228H452.621V10.2166H446.84V18.4228ZM452.621 29.8933V20.3837H446.84V29.8933H452.621ZM474.156 8.30106C474.077 19.7716 473.896 26.3683 473.329 31.6615C472.762 36.9547 468.308 38.3715 460.827 33.7697L461.314 32.2395C468.342 33.7697 469.135 33.237 469.441 30.1653C469.861 26.0962 470.121 20.803 470.201 10.2506H462.765C461.552 13.2429 459.898 16.3825 457.699 19.1482L456.418 18.1508C458.991 12.9369 460.306 5.7621 460.918 0.695575L465.338 1.53435C464.998 3.2572 464.397 5.68277 463.491 8.28971H474.156V8.30106ZM464.295 25.9829C463.128 22.4578 461.723 19.1935 460.249 16.2352L461.53 15.2378C464.023 17.5387 466.596 20.9163 468.07 23.8293L464.295 25.9829Z" fill="black"/>
<path d="M512.841 9.94453C512.388 20.6443 511.935 25.9035 511.22 31.0041C510.427 36.3766 505.361 37.6347 497.324 32.5796L497.891 31.0041C505.712 33.1123 506.732 32.5002 507.185 29.0885C507.786 25.0195 508.172 20.2703 508.466 12.2908H498.004C497.098 23.4893 493.777 32.3189 482.249 36.728L481.456 35.2318C490.104 30.1653 492.904 22.9566 493.697 12.2908H484.369V9.95588H493.845C493.992 7.23559 493.992 4.31129 493.992 1.17163H498.333C498.333 4.19795 498.299 7.15625 498.14 9.95588H512.841V9.94453Z" fill="black"/>
<path d="M555.3 33.4296V35.3451H521.489V33.4296H536.485V30.97H524.742V29.0544H536.485V26.7195H526.737V16.7452H550.268V26.7195H540.339V29.0544H552.421V30.97H540.339V33.4296H555.3ZM554.473 14.8636H522.328V12.9481H554.473V14.8636ZM549.293 11.0212H527.644V2.35034H549.293V11.0212ZM530.444 20.8029H536.485V18.6493H530.444V20.8029ZM536.485 24.7927V22.6391H530.444V24.7927H536.485ZM545.745 4.26588H531.203V5.76201H545.745V4.26588ZM545.745 7.49619H531.203V9.15105H545.745V7.49619ZM540.339 20.8029H546.573V18.6493H540.339V20.8029ZM540.339 24.7927H546.573V22.6391H540.339V24.7927Z" fill="black"/>
</g>
</svg>
